<svg width="4140" height="2630" viewBox="0 0 4140 2630" fill="none" xmlns="http://www.w3.org/2000/svg">
<g clip-path="url(#clip0_138_300)">
<rect width="4140" height="2630" fill="#1592B3"/>
<rect width="4140" height="2630" fill="url(#paint0_linear_138_300)" fill-opacity="0.98"/>
<path d="M1607 79.5L689.5 2708C864 2780 1244.3 2890.5 1369.5 2756.5L1769 79.5H1607Z" fill="url(#paint1_linear_138_300)" fill-opacity="0.78"/>
<path d="M560 47L139 1137L560 1250.5L689.5 47H560Z" fill="url(#paint2_linear_138_300)" fill-opacity="0.78"/>
<path d="M2192.5 203.5L2341 2756.5L2819.5 2708L2341 203.5H2192.5Z" fill="url(#paint3_linear_138_300)" fill-opacity="0.78"/>
<path d="M3214 158.5L3770 2970.5L4377.5 2460L3408 158.5H3214Z" fill="url(#paint4_linear_138_300)" fill-opacity="0.78"/>
<path d="M14.4337 30.0132C19.1244 27.1846 34.7458 23.3894 55.2427 22.437C69.6262 21.7687 92.1571 23.3609 121.581 26.6586C151.004 29.9563 186.653 35.5852 206.66 38.9539C230.016 42.8867 239.9 45.1656 250.319 47.2906C254.268 48.0961 255.109 49.8847 254.42 51.3132C253.73 52.7417 251.385 54.1489 225.785 55.3429C200.185 56.5369 151.402 57.4751 121.815 57.4893C92.2281 57.5035 83.3158 56.5654 73.7994 56.0821C54.4514 55.0995 41.9382 55.1297 36.7429 54.419C30.6614 53.5871 12.2163 50.4248 -9.11927 43.5665C-15.8279 41.41 -12.6302 38.1153 -6.48963 36.6726C-0.34909 35.2298 9.0323 34.7607 33.3315 38.2717C57.6307 41.7826 96.5635 49.2877 113.571 51.9813C130.578 54.6749 124.48 52.3295 117.352 50.6522C102.432 47.1417 86.5282 47.0703 73.9842 46.8357C55.7049 46.494 37.1907 44.7107 35.2931 42.1166C34.2734 40.7227 35.2718 38.1153 34.8098 36.6726C32.123 28.2816 14.4479 34.7465 11.8467 36.1608C6.29953 39.1769 6.85752 46.1037 6.38135 49.8847C6.14335 51.7745 6.84331 53.6657 11.7756 54.6322C26.0894 55.5988 51.2343 53.7225 82.4274 50.8797C98.1413 49.9131 113.621 49.9131 130.99 48.4917" stroke="#22EDEE" stroke-width="29" stroke-linecap="round"/>
<path d="M3795.42 88.2916C3770.09 88.2916 3748.13 88.2916 3729.93 87.1189C3699.47 85.1559 3692.65 76.4653 3685.05 73.8499C3682.71 73.0456 3679.4 72.2011 3678.41 70.5451C3677.42 68.8891 3678.83 66.5438 3707.7 62.0521C3736.57 57.5604 3792.86 50.9934 3827.95 47.6105C3863.05 44.2275 3875.24 44.2275 3888.09 43.5239C3900.94 42.8203 3914.08 41.4131 3929.05 39.0464C3944.03 36.6797 3960.44 33.3962 3992.59 31.2357C4024.73 29.0751 4072.11 28.137 4097.69 27.8882C4137.25 27.5035 4157.85 42.3228 4162.35 44.4478C4164.21 45.3279 4164.5 47.0419 4163.1 49.6431C4159.36 56.5936 4150.81 62.2085 4141.84 66.2311C4132.48 70.4243 4119.1 69.8131 4076.77 71.6893C4041.93 73.2337 3980.03 77.3182 3944.62 79.9549C3902.09 83.1211 3890.69 85.4487 3880.31 86.1523C3866.05 87.1186 3855.14 90.6511 3849 92.3071C3842.07 94.1759 3822.11 93.9773 3793.49 92.8046C3758.87 91.3862 3746.21 83.5724 3740.69 80.7225C3739.66 80.1873 3744.19 78.37 3805.91 76.2379C3867.64 74.1058 3988.19 71.2913 4052.64 69.3724C4117.08 67.4535 4121.78 66.5154 4125.13 66.0321C4128.48 65.5488 4130.36 65.5488 4130.15 64.8452C4126.33 51.7874 4103.85 54.6607 4083.23 54.1774C4061.21 53.6612 4015.71 56.5086 3987.81 58.1787C3959.92 59.8489 3951.01 61.2561 3928.59 61.981C3906.17 62.706 3870.52 62.706 3855.21 62.2369C3839.89 61.7678 3845.99 60.8297 3893.69 59.4083C3941.4 57.9868 4030.52 56.1106 4079.95 54.4404C4129.38 52.7702 4136.42 51.363 4141.45 50.6381C4146.48 49.9132 4149.29 49.9132 4152.19 49.9132" stroke="#22EDEE" stroke-width="29" stroke-linecap="round"/>
<path d="M3365.68 -5.13805C3373.47 -2.70918 3396.01 4.65102 3416.31 9.05978C3426.84 11.3458 3438.08 12.497 3474.44 12.762C3510.8 13.0269 3572 12.0554 3628.31 7.42581C3684.61 2.79625 3734.16 -5.4619 3727.38 -7.28723C3720.61 -9.11256 3656 -4.25483 3593.33 -1.99524C3530.65 0.264338 3471.87 -0.221435 3411.31 -0.721929" stroke="#22EDEE" stroke-width="29" stroke-linecap="round"/>
<path d="M0.597656 280.438C3.02652 281.409 5.45539 282.381 21.0369 286.039C36.6185 289.697 65.2791 296.012 130.321 300.722C195.363 305.433 295.918 308.348 350.877 310.335C405.836 312.322 412.151 313.294 420.019 313.794C437.089 314.88 453.912 312.837 492.156 311.115C523.083 309.722 577.52 311.822 628.621 315.48C679.723 319.138 725.872 325.453 775.877 328.706C825.882 331.959 878.346 331.959 907.315 332.202C946.137 332.527 953.95 334.403 967.647 335.875C1012.24 340.667 1044.75 340.306 1038.95 339.57C1013.91 336.393 991.325 338.348 978.628 336.147C970.337 334.71 958.16 333.461 918.628 331.981C879.096 330.502 812.546 329.044 738.671 316.149C664.797 303.254 585.616 278.966 520.294 262.081C454.972 245.197 405.909 236.453 368.004 231.22C330.099 225.987 304.839 224.53 289.397 223.293C273.955 222.057 269.098 221.085 223.604 219.37C178.111 217.655 92.1291 215.226 47.1068 214.218C2.08442 213.21 0.627097 213.695 1.81945 214.189C3.0118 214.682 6.89799 215.167 36.3461 215.175C65.7943 215.182 120.687 214.696 152.851 215.418C185.015 216.139 192.787 218.082 212.336 221.269C231.885 224.456 262.974 228.828 303.764 238.367C344.555 247.906 394.103 262.479 421.329 270.229C451.831 278.912 458.858 280.423 474.212 284.817C486.045 288.204 506.567 292.126 532.622 296.078C558.677 300.031 589.767 303.431 607.969 305.668C626.171 307.906 630.542 308.878 641.781 310.35C693.352 317.104 702.746 318.711 703.983 318.711C706.146 318.711 695.445 317.253 652.873 307.03C614.764 297.878 542.779 282.234 502.828 273.004C462.877 263.774 457.048 261.831 453.073 260.83C449.099 259.829 447.156 259.829 466.8 264.201C486.444 268.573 527.735 277.317 551.192 282.55C574.649 287.783 579.021 289.241 573.987 289.505C568.952 289.77 554.379 288.799 537.156 285.627C500.149 278.81 477.082 270.148 469.744 267.454C455.121 262.086 445.684 262.788 417.207 255.479C392.724 249.195 347.44 239.427 323.438 234.172C299.436 228.916 297.979 228.916 298.443 228.916C301.335 228.916 328.612 232.317 368.092 237.469C386.61 239.885 399.918 240.678 431.147 247.015C453.232 251.496 487.637 260.153 507.347 264.65C542.123 272.584 559.458 276.022 561.68 276.022C561.887 276.022 558.56 276.022 541.513 273.35C524.467 270.678 493.378 265.335 466.675 260.153C439.972 254.971 418.598 250.114 405.887 247.611C393.176 245.109 389.776 245.109 388.753 245.109C387.729 245.109 389.187 245.109 410.583 250.209C431.979 255.31 473.27 265.511 484.339 269.066C493.226 271.92 451.557 264.26 441.805 260.109C422.897 252.06 408.367 249.039 408.831 249.518C410.327 251.061 416.096 252.911 430.75 257.319C445.404 261.728 469.207 268.043 484.626 272.511C506.528 278.857 517.24 282.396 524.592 283.374C527.587 283.773 529.031 284.353 513.994 280.96C498.957 277.567 467.382 270.281 444.315 263.855C421.248 257.43 407.646 252.086 419.584 255.163C431.523 258.239 469.413 269.898 491.118 276.147C525.278 285.981 543.192 288.769 559.914 293.178C567.62 295.21 580.007 298.073 591.305 302.975C594.637 304.42 591.916 305.933 524.114 307.163C456.312 308.392 323.21 309.849 235.211 308.657C147.213 307.464 108.351 303.578 75.944 298.176C43.5371 292.773 18.7626 285.973 8.18602 282.712C1.69081 280.71 25.9167 286.753 65.073 297.778C84.5939 303.275 104.229 305.404 122.012 306.905C139.794 308.406 155.339 308.406 217.996 311.807C280.653 315.207 389.952 322.008 450.387 325.026C510.821 328.043 519.08 327.072 525.034 326.571C534.369 325.787 542.264 325.099 556.175 322.656C580.16 318.443 596.759 316.753 598.239 315.774C598.65 315.502 596.803 314.795 576.136 314.788C555.468 314.78 515.635 315.266 508.474 315.516C501.312 315.767 528.03 315.767 523.334 316.01C518.638 316.252 481.719 316.738 476.302 316.988C421.568 319.517 542.779 304.491 544.752 302.29C545.573 301.375 542.838 299.604 520.949 293.509C499.06 287.415 457.283 276.728 437.462 271.223C417.641 265.717 421.042 265.717 431.537 267.418C442.033 269.118 459.521 272.518 451.285 267.712C443.049 262.906 408.559 249.79 389.577 242.79C370.595 235.791 368.166 235.305 372.744 237.726C388.654 246.142 418.48 256.826 430.161 261.044C465.019 273.629 362.248 239.721 369.991 242.864C379.742 246.822 401.051 256.208 399.918 256.591C398.784 256.973 374.496 248.229 354.94 242.268C335.384 236.306 321.296 233.391 315.011 231.89C308.725 230.388 310.668 230.388 339.844 238.889C369.02 247.39 425.37 264.392 456.098 273.151C486.827 281.91 490.228 281.91 493.731 281.91" stroke="#18B6C9" stroke-width="12" stroke-linecap="round"/>
<path d="M-97 1891.5C881.833 1951.33 3116.5 2057.4 4224.5 2003C5332.5 1948.6 4311.17 2643.67 3662 2998L-171.5 2868.5L-97 1891.5Z" fill="#299CB9" stroke="#6EC9DD"/>
<path d="M1.5 212.5C87.1667 233.167 259.5 279.3 263.5 298.5C268.5 322.5 288 518.5 322 578.5C377.167 588 487.8 611.3 489 628.5C490.2 645.7 545.5 700.667 573 726C579.5 797.167 600.256 939.814 612 957.5C696 1084 1052.5 998 1267.5 1252C1270.67 1307 1275.1 1424.8 1267.5 1456C1292.33 1478.83 1343.3 1530.6 1348.5 1555C1355 1585.5 1392 2218.5 1384 2324L-100 2287.5L1.5 212.5Z" fill="#243040" stroke="#243040"/>
<path d="M4221.5 800C4133.67 795.333 3922 794.1 3778 826.5L3694 980L3056 1154L2763.5 1525L2641.5 2069.5L2468 2093L2352 2397.5L4221.5 2449.5V800Z" fill="#2A4765" stroke="#2A4765"/>
<path d="M4166.5 212C4118 222.5 4019.3 249.9 4012.5 275.5C4004 307.5 3989 988.5 4012.5 1029C3975.83 1067.67 3897.3 1151.4 3876.5 1177C3855.7 1202.6 3867.83 1599.33 3876.5 1794.5L3682.5 1913V2414.5L4166.5 2391.5V212Z" fill="#243040" stroke="#243040"/>
<path d="M3059 1862.5C2980.2 1967.7 2966.83 2080.33 2970 2123.5H3018.5C3022.17 2104.67 3038.2 2053.3 3073 1998.5C3116.5 1930 3165 1878 3163.5 1786C3162 1694 3157.5 1662.5 3010.5 1489C2897.99 1356.2 2898.86 1234.79 2914.76 1184.39C2875.91 1298.99 2911.09 1400.52 2934 1437.5C3008.5 1535.33 3137.8 1757.3 3059 1862.5Z" fill="#1D4C2A"/>
<path d="M2914.76 1184.39C2898.86 1234.79 2897.99 1356.2 3010.5 1489C3157.5 1662.5 3162 1694 3163.5 1786C3165 1878 3116.5 1930 3073 1998.5C3038.2 2053.3 3022.17 2104.67 3018.5 2123.5H2970C2966.83 2080.33 2980.2 1967.7 3059 1862.5C3137.8 1757.3 3008.5 1535.33 2934 1437.5C2911.09 1400.52 2875.91 1298.99 2914.76 1184.39ZM2914.76 1184.39C2915.48 1182.12 2916.23 1179.98 2917 1178C2916.23 1180.14 2915.48 1182.27 2914.76 1184.39Z" stroke="#1D4C2A"/>
<path d="M3690.5 2073C3758.83 1985.33 3892.5 1783.6 3880.5 1678C3868.5 1572.4 3969.83 1325 4022 1214.5C3990.33 1341.67 3946 1652.4 4022 1878C4098 2103.6 3832.67 2102 3690.5 2073Z" fill="#1D4C2A" stroke="#1D4C2A"/>
<path d="M3487 2070C3455.67 1960.17 3402.4 1699.6 3440 1536C3477.6 1372.4 3471.33 1183.5 3463.5 1109.5C3498.83 1195 3569.2 1402.5 3568 1548.5C3566.8 1694.5 3522.83 1791.67 3501 1822L3487 2070Z" fill="#1D4C2A" stroke="#1D4C2A"/>
<path d="M3199.5 2057.5C3194.83 1951.83 3198.3 1697.7 3249.5 1526.5C3300.7 1355.3 3290.83 1225.17 3279.5 1181.5C3302.83 1256.83 3339.5 1431.3 3299.5 1526.5C3259.5 1621.7 3216.17 1920.17 3199.5 2057.5Z" fill="#1D4C2A" stroke="#1D4C2A"/>
<path d="M3602 2043C3569.33 1912.83 3547.3 1617.2 3720.5 1476C3893.7 1334.8 3757 1179.5 3667 1119.5C3759.33 1170 3916.3 1316 3805.5 1496C3694.7 1676 3656 1754.67 3650.5 1771.5L3602 2043Z" fill="#1D4C2A" stroke="#1D4C2A"/>
<path d="M3079.5 1682.5C3024.3 1902.9 3293.5 1921.5 3351 2063.5C3448.5 2135.67 3592.6 2230.5 3389 2032.5C3185.4 1834.5 3147.5 1761.67 3154 1750C3296.9 1528.14 3236.62 1329.12 3162.33 1217.25C3223.8 1347.86 3139.26 1571.43 3079.5 1682.5Z" fill="#285936"/>
<path d="M3162.33 1217.25C3236.62 1329.12 3296.9 1528.14 3154 1750C3147.5 1761.67 3185.4 1834.5 3389 2032.5C3592.6 2230.5 3448.5 2135.67 3351 2063.5C3293.5 1921.5 3024.3 1902.9 3079.5 1682.5C3139.26 1571.43 3223.8 1347.86 3162.33 1217.25ZM3162.33 1217.25C3145.54 1191.97 3128.04 1171.14 3112 1155.5C3134.52 1172.02 3150.94 1193.04 3162.33 1217.25Z" stroke="#276337"/>
<path d="M3072 2139C3022.67 2054 2935.5 1837.2 2981.5 1650C3027.5 1462.8 2933.67 1281.33 2881 1214C2950 1281.83 3083.1 1455.1 3063.5 1605.5C3039 1793.5 3015 1875 3043.5 1945.5C3047.33 1959.33 3058.4 2017.4 3072 2139Z" fill="#285936" stroke="#276337"/>
<path d="M3386 1254.5C3455.2 1168.5 3414.83 1074.33 3386 1038C3415.33 1071.83 3466.4 1170.7 3436 1295.5C3405.6 1420.3 3359.33 1859.83 3339.99 2064C3326.6 1823.69 3317.66 1339.43 3386 1254.5Z" fill="#285936"/>
<path d="M3340.5 2073C3340.33 2070.04 3340.16 2067.04 3339.99 2064M3339.99 2064C3326.6 1823.69 3317.66 1339.43 3386 1254.5C3455.2 1168.5 3414.83 1074.33 3386 1038C3415.33 1071.83 3466.4 1170.7 3436 1295.5C3405.6 1420.3 3359.33 1859.83 3339.99 2064Z" stroke="#276337"/>
<path d="M3618 1592.5C3686 1670.1 3596.67 1924.83 3543.5 2042.5L3560.5 2050.5C3662 1911 3834.7 1612.9 3713.5 1536.5C3592.3 1460.1 3549.67 1285.33 3543.5 1207.5C3543.5 1034.34 3595.32 978.013 3630.43 968.137C3523.93 987.453 3499.56 1144.13 3501 1223C3511.67 1313.83 3550 1514.9 3618 1592.5Z" fill="#285936"/>
<path d="M3630.43 968.137C3595.32 978.013 3543.5 1034.34 3543.5 1207.5C3549.67 1285.33 3592.3 1460.1 3713.5 1536.5C3834.7 1612.9 3662 1911 3560.5 2050.5L3543.5 2042.5C3596.67 1924.83 3686 1670.1 3618 1592.5C3550 1514.9 3511.67 1313.83 3501 1223C3499.56 1144.13 3523.93 987.453 3630.43 968.137ZM3630.43 968.137C3635.15 966.811 3639.56 966.323 3643.5 966.5C3639.01 966.821 3634.66 967.371 3630.43 968.137Z" stroke="#276337"/>
<path d="M3393.5 2054C3531.38 1832.55 3081.42 1430.22 3316.15 953.951C2964.92 1610.43 3409.29 1821.3 3298 2054H3393.5Z" fill="#2A693B"/>
<path d="M3316.15 953.951C3081.42 1430.22 3531.38 1832.55 3393.5 2054H3298C3409.29 1821.3 2964.92 1610.43 3316.15 953.951ZM3316.15 953.951C3329.43 929.113 3343.86 903.638 3359.5 877.5C3342.99 903.181 3328.6 928.67 3316.15 953.951Z" stroke="#2A693B"/>
<path d="M2848 2176.5C2868 2113.67 2900.9 1960.8 2872.5 1852C2844.1 1743.2 2693.33 1640.33 2621.5 1602.5C2579.17 1564.33 2501.6 1467.3 2530 1384.5C2518 1519.5 2887.5 1593 2918.5 1804.5C2928.66 1895 2933.7 2098.6 2872.5 2189C2811.3 2279.4 2830.67 2218.33 2848 2176.5Z" fill="#285936" stroke="#276337"/>
<path d="M3505 2061.5C3486.5 2034.5 3494.3 1946.8 3673.5 1812C3852.7 1677.2 3748.17 1368.5 3673.5 1231C3765.83 1362.83 3894.53 1647.12 3761.5 1812C3726 1856 3715.5 1827.5 3505 2061.5Z" fill="#2A693B" stroke="#2A693B"/>
<path d="M3432.5 2028C3439.83 1847.5 3477.4 1445.5 3569 1281.5C3683.5 1076.5 3498 1124 3478.5 961.5C3600.93 1144 3654 1055 3698.5 1242C3669 1516.5 3613 1447.5 3569 1721.5L3478.5 2041.5L3432.5 2028Z" fill="#2A693B" stroke="#2A693B"/>
<path d="M3886.54 1598.43C3918.61 1409.82 3841.19 1256.28 3792.78 1195C3910.32 1351.05 3726.8 1887.26 3615.25 2146.76C3691.68 2046.32 3852.94 1796.03 3886.54 1598.43Z" fill="#648B22"/>
<path d="M3576.5 2089C3576.74 2088.45 3615.01 2147.32 3615.25 2146.76M3748.04 1127.44C3745.33 1124.45 3742.48 1121.64 3739.5 1119C3591.9 988.6 3683.69 1070.3 3748.04 1127.44ZM3748.04 1127.44C3750.37 1130.02 3790.64 1192.16 3792.78 1195M3748.04 1127.44C3750.2 1129.94 3790.47 1192.08 3792.78 1195M3615.25 2146.76C3691.68 2046.32 3852.94 1796.03 3886.54 1598.43C3918.61 1409.82 3841.19 1256.28 3792.78 1195M3615.25 2146.76C3726.8 1887.26 3910.32 1351.05 3792.78 1195" stroke="#648B22"/>
<path d="M2848 1625C2750 2005.4 2785.17 2173.5 2815 2210C2796.6 1972.4 2845.67 1870.67 2872.5 1849.5C2968.9 1752.7 2998.7 1613.5 2953 1556C2805.61 1370.55 2748.43 1250.65 2732.25 1192.38C2764.98 1348.81 2892.5 1522.89 2848 1625Z" fill="#2A693B"/>
<path d="M2732.25 1192.38C2748.43 1250.65 2805.61 1370.55 2953 1556C2998.7 1613.5 2968.9 1752.7 2872.5 1849.5C2845.67 1870.67 2796.6 1972.4 2815 2210C2785.17 2173.5 2750 2005.4 2848 1625C2892.5 1522.89 2764.98 1348.81 2732.25 1192.38ZM2732.25 1192.38C2728.36 1178.38 2726.84 1167.94 2727 1161C2728.26 1171.36 2730.04 1181.83 2732.25 1192.38Z" stroke="#2A693B"/>
<path d="M2846.96 2259C2786.46 2223.83 2640.96 2187.5 2672.46 1879.5C2720.98 1700.12 2794.68 1510.26 2625.02 1384.53C2673.72 1424.45 2727.38 1542.46 2614.46 1757.5C2462.96 2046 2610.96 2181.5 2846.96 2259Z" fill="#648B22"/>
<path d="M2625.02 1384.53C2794.68 1510.26 2720.98 1700.12 2672.46 1879.5C2640.96 2187.5 2786.46 2223.83 2846.96 2259C2610.96 2181.5 2462.96 2046 2614.46 1757.5C2727.38 1542.46 2673.72 1424.45 2625.02 1384.53ZM2625.02 1384.53C2621.45 1381.6 2617.91 1379.09 2614.46 1377C2618.08 1379.48 2621.6 1381.99 2625.02 1384.53Z" stroke="#648B22"/>
<path d="M3799.48 2360.71C3782.67 2297.9 3755 2145.09 3778.88 2036.33C3802.76 1927.57 3929.53 1824.74 3989.93 1786.92C4025.53 1748.77 4090.75 1651.77 4066.87 1569C4076.96 1703.95 3766.27 1777.42 3740.21 1988.85C3731.66 2079.32 3727.43 2282.84 3778.88 2373.21C3830.34 2463.58 3814.06 2402.53 3799.48 2360.71Z" fill="#285936" stroke="#276337"/>
<path d="M3812.18 2287C3682.85 2065.46 4104.89 1662.96 3884.73 1186.48C4214.17 1843.24 3797.37 2054.21 3901.75 2287H3812.18Z" fill="#648B22"/>
<path d="M3884.73 1186.48C4104.89 1662.96 3682.85 2065.46 3812.18 2287H3901.75C3797.37 2054.21 4214.17 1843.24 3884.73 1186.48ZM3884.73 1186.48C3872.27 1161.64 3858.74 1136.15 3844.07 1110C3859.55 1135.69 3873.05 1161.19 3884.73 1186.48Z" stroke="#648B22"/>
<path d="M2886.12 1728.62C2822.91 1772.05 2727.37 1861.24 2743 1948.5C2760.2 2044.5 2844.5 2141.83 2884.5 2178.5C2819.89 2071.78 2733.98 1838.07 2886.12 1728.62Z" fill="#648B22"/>
<path d="M2886.12 1728.62C2822.91 1772.05 2727.37 1861.24 2743 1948.5C2760.2 2044.5 2844.5 2141.83 2884.5 2178.5C2819.89 2071.78 2733.98 1838.07 2886.12 1728.62ZM2886.12 1728.62C2891.75 1724.57 2897.71 1720.7 2904 1717C2898.46 1720.38 2892.45 1724.27 2886.12 1728.62Z" stroke="#648B22"/>
<path d="M-13 2271.5C194.833 2263.83 671.193 2315 940.5 2315C1889 2315 3517 2402 4161 2259V2676.5H-13V2271.5Z" fill="#DDE4AE" stroke="#CFB296"/>
<path d="M2239 2446.76C2349.83 2359.83 2580.5 2185.96 2616.5 2185.96H2812L3168 2019H3605.5L3805 2099.89H4028.5L4168 2169.14V2494L2239 2446.76Z" fill="#556880"/>
<path d="M2616.5 2185.96C2580.5 2185.96 2349.83 2359.83 2239 2446.76L4168 2494V2169.14L4028.5 2099.89H3805L3605.5 2019H3168L2812 2185.96M2616.5 2185.96C2652.5 2185.96 2761.83 2185.96 2812 2185.96M2616.5 2185.96H2812" stroke="#33455C"/>
<path d="M-18.5006 1569.5C10.3327 1509.33 139.999 1437.1 427.999 1629.5L458.499 1950L558.999 2064C587.833 2138.67 643.999 2307.9 637.999 2387.5C630.499 2487 157.999 2655.5 -14.0006 2543.5C-151.601 2453.9 -74.3339 1856.83 -18.5006 1569.5Z" fill="#33455C" stroke="#33455C"/>
<path d="M428.5 1630C329.833 1557.17 106.1 1438.1 0.499956 1544.5C-105.1 1650.9 135.5 1707.83 269 1723L428.5 1630Z" fill="#5F7C90" stroke="#5F7C90"/>
<path d="M-11.5 2263.5C86 2297.5 331.6 2328.6 534 2181C567.333 2221 621.8 2317.8 573 2385C524.2 2452.2 335.667 2507 247.5 2526L-11.5 2494V2263.5Z" fill="#5F7C90" stroke="#5F7C90"/>
<path d="M2181 2468C2190.67 2439.5 2221.2 2382.5 2266 2382.5H2403.5C2429.33 2383.5 2481.5 2394.8 2483.5 2432C2485.5 2469.2 2444.33 2495.5 2423.5 2504C2328.17 2514.74 2146.2 2522.58 2181 2468Z" fill="#5F7C90"/>
<path d="M2266 2382.5C2221.2 2382.5 2190.67 2439.5 2181 2468C2146.2 2522.58 2328.17 2514.74 2423.5 2504C2444.33 2495.5 2485.5 2469.2 2483.5 2432C2481.5 2394.8 2429.33 2383.5 2403.5 2382.5M2266 2382.5C2310.8 2382.5 2376.33 2382.5 2403.5 2382.5M2266 2382.5H2403.5" stroke="#5F7C90"/>
<path d="M2531 2539.5C2524.33 2512.67 2520.3 2473.1 2557.5 2529.5C2587 2519.5 2630.8 2508.9 2570 2546.5C2594.67 2562.17 2628 2588.1 2564 2566.5C2559.67 2593.17 2549 2630.5 2541 2566.5C2513.83 2570 2473.8 2569.5 2531 2539.5Z" fill="#DE9663" stroke="#DE9663"/>
<path d="M1821.44 1986.85C1820.42 1986.51 1819.4 1986.17 1798.37 1975.66C1777.33 1965.14 1736.31 1944.46 1713.31 1933.13C1686.77 1920.05 1679.35 1917.35 1671 1913.59C1666.09 1911.39 1659.59 1909.16 1638.47 1903.02C1617.35 1896.88 1581.75 1887.05 1546.13 1871.65C1510.5 1856.24 1475.92 1835.56 1457.42 1824.23C1434.82 1809.46 1431.05 1807.07 1429 1805.19C1427.97 1804.33 1426.95 1803.65 1423.85 1800.9" stroke="#A82D54" stroke-width="20" stroke-linecap="round"/>
<path d="M1685.09 1581.87C1689.58 1581.87 1699.51 1581.42 1706.18 1579.96C1714.28 1578.18 1720.09 1574.43 1720.21 1573.41C1720.64 1569.72 1711.99 1574.64 1704.21 1577.57C1697.29 1579.38 1693.25 1579.84 1688.85 1579.73C1687.13 1579.61 1686.46 1579.39 1684.41 1579.16" stroke="#A82D54" stroke-width="10" stroke-linecap="round"/>
<path d="M1666.12 1580.52C1665 1578.49 1661.41 1569.97 1659.13 1560.67C1658.07 1556.38 1657.54 1544.93 1658.21 1530.14C1658.82 1516.78 1669.49 1509.84 1671.86 1508.37C1672.86 1507.75 1673.56 1507.58 1673.79 1508.13C1675.7 1512.67 1670.2 1520.62 1668.95 1532.35C1666.4 1556.21 1670.19 1559.95 1670.97 1562.89C1671.82 1566.06 1673.79 1569.88 1675.49 1573.16C1675.88 1573.93 1676.05 1574.85 1675.72 1575.42C1675.39 1576 1674.49 1576.22 1673.59 1576C1667.68 1574.57 1667.03 1560.46 1665.56 1552.54C1664.32 1544.85 1663.41 1538.55 1662.85 1530.76C1662.73 1527.72 1662.73 1523.02 1662.73 1518.19" stroke="#A82D54" stroke-width="10" stroke-linecap="round"/>
<path d="M1690.51 1575.77C1693.65 1575.55 1701.31 1573.75 1708.21 1572.28C1714.52 1570.93 1717.6 1568.78 1720.53 1567.42C1724.66 1565.51 1727.76 1564.04 1731.6 1562.9C1735.17 1561.85 1741.29 1561.55 1746.37 1562.44C1748.29 1562.78 1748.1 1565.12 1747.99 1566.38C1747.87 1567.64 1747.65 1568.31 1747.2 1568.88C1744.67 1572.08 1731.92 1575.29 1724.51 1579.6C1720.48 1581.95 1714.26 1586.14 1708.6 1588.53C1702.66 1591.03 1689.25 1590.68 1680.14 1589.55C1678.99 1589.41 1678.33 1589.32 1677.65 1589.21C1676.97 1589.1 1676.3 1588.88 1676.73 1588.31C1678.25 1586.36 1688.62 1583.92 1702.05 1580.76C1708.94 1579.14 1713.52 1578.04 1718.92 1575.45C1724.33 1572.2 1729.33 1569.24 1733.72 1567.21C1735.88 1566.3 1737.89 1565.62 1741.32 1564.93" stroke="#A82D54" stroke-width="10" stroke-linecap="round"/>
<path d="M1645.8 1597.45C1644.9 1596.56 1641.53 1592.07 1636.01 1583.41C1633.15 1578.91 1631.16 1573.62 1628.33 1565.05C1625.51 1556.47 1622.15 1544.62 1619.53 1536.28C1615.47 1523.36 1611.26 1516.18 1607.21 1511.11C1601.25 1503.66 1597.71 1503.06 1592.86 1500.13C1587.8 1497.07 1582.37 1496.74 1573.9 1496.84C1572.37 1496.86 1572.18 1497.85 1572.06 1498.53C1571.61 1501.22 1575.54 1504.84 1579.16 1507.67C1584.06 1511.51 1586.84 1513.66 1589.1 1516.25C1592.52 1520.18 1598.33 1530.08 1602.88 1540.4C1604.02 1543 1605.14 1547.06 1607.39 1556.16C1608.86 1562.16 1611.42 1570.85 1613.58 1576.69C1619.15 1591.72 1629.06 1597.21 1631.67 1600.04C1632.76 1601.22 1634.94 1602.19 1637.31 1602.98C1638.29 1603.31 1639.01 1602.66 1639.47 1601.98C1641.43 1599.07 1639.93 1594.54 1637.56 1589.57C1634.52 1583.16 1626.16 1578.73 1624.01 1575.11C1622.89 1573.23 1619.4 1565.9 1615.34 1555.41C1611.27 1544.9 1608.33 1530.43 1605.38 1524.52C1603.8 1521.36 1600.65 1517.75 1596.47 1513.01C1590.49 1506.23 1586.87 1504.87 1584.15 1503.29C1583.45 1502.88 1582.8 1502.39 1583.35 1502.94C1585.57 1505.18 1589.54 1508.9 1595.95 1518.33C1600.68 1525.3 1607.04 1537.59 1611.95 1547.27C1620.25 1563.65 1623.21 1572.6 1624.56 1576.2C1627.82 1584.91 1630.88 1588.63 1633.48 1593.03C1634.49 1594.74 1635.63 1596.32 1636.64 1597.11C1641.01 1600.54 1632.26 1582.58 1629.77 1578.5C1628.03 1575.64 1626.16 1574.43 1624.8 1573.3C1624.17 1572.77 1623.45 1572.62 1623.11 1573.17C1622.09 1574.81 1622.98 1577.57 1623.66 1579.82C1624.38 1582.23 1627.04 1584.79 1629.41 1586.6C1630.08 1587.12 1630.21 1585.73 1629.21 1584.15C1628.2 1582.57 1626.19 1580.56 1625.04 1580.08C1623.89 1579.6 1623.67 1580.72 1623.67 1582.19C1624.56 1588.63 1628.15 1595.38 1631.45 1599.48C1632.02 1600.16 1632.46 1600.83 1633.6 1602.2" stroke="#A82D54" stroke-width="10" stroke-linecap="round"/>
<path d="M1644.44 1598.13C1649.17 1602.41 1654.8 1605.57 1668.37 1609.84C1678.92 1613.16 1697.37 1617.24 1709.5 1619.88C1721.62 1622.51 1726.99 1623.19 1735.57 1625.32C1744.14 1627.45 1755.77 1631.03 1762.2 1633.1C1769.58 1635.47 1771.35 1636.74 1773.04 1638.09C1774.6 1639.34 1775.2 1642.82 1774.75 1647.11C1774.58 1648.77 1773.41 1649.16 1772.5 1649.39C1768.75 1650.34 1761.92 1650.3 1755.35 1649.29C1751.72 1648.73 1744.77 1645.57 1727.58 1641.75C1715.79 1639.13 1697.65 1635.69 1687.65 1633.63C1677.65 1631.56 1676.31 1631.11 1672.15 1629.32C1661.07 1624.39 1651.02 1618.93 1645.61 1614.65C1643.11 1612.6 1641.09 1610.81 1637.67 1607.62" stroke="#A82D54" stroke-width="10" stroke-linecap="round"/>
<path d="M1639.02 1602.2C1639.47 1602.2 1649.76 1608.23 1667.57 1618.16C1675.15 1622.39 1680.47 1623.62 1686.92 1625.1C1693.37 1626.57 1700.97 1627.91 1707.23 1629.28C1718.26 1631.67 1726.38 1633.81 1735.38 1635.6C1758.23 1640.16 1762.75 1643.74 1766.94 1645.44C1767.75 1645.76 1768.41 1646 1769.09 1646.23C1769.77 1646.46 1770.44 1646.68 1769.22 1645.9C1760.75 1640.49 1756.24 1640.37 1749.84 1638.91C1738.66 1636.36 1729.38 1631.34 1725.2 1629.2C1722.71 1627.92 1720.11 1627.27 1713.27 1625.14C1707.99 1623.67 1699.05 1621.44 1687.06 1617.83C1675.08 1614.21 1660.32 1609.3 1644.44 1603.55" stroke="#A82D54" stroke-width="10" stroke-linecap="round"/>
<path d="M1610.57 1625.91C1610.12 1625.91 1602.96 1621.66 1591.45 1614.33C1584.54 1609.93 1581.22 1606.5 1576.06 1602.23C1572.37 1599.19 1566.87 1593.94 1562.2 1588.16C1553.03 1576.81 1549.37 1567.44 1545.56 1560.14C1542.85 1554.96 1537.72 1547.25 1532.5 1540.76C1517.57 1522.18 1513.02 1522.48 1508.51 1521.69C1506.95 1521.41 1504.92 1521.57 1503.65 1521.91C1502.39 1522.24 1501.95 1522.91 1501.72 1524.6C1501.13 1528.94 1502.6 1532.85 1504.75 1534.88C1508.53 1538.47 1514.1 1542.78 1518.86 1545.95C1522.32 1548.26 1528.98 1556.97 1532.87 1562.1C1533.79 1563.31 1535.13 1564.47 1537.82 1568.85C1543.79 1578.55 1549.58 1587.04 1553.62 1593.11C1559.55 1602.01 1566.73 1608.05 1570.57 1611.21C1575.65 1615.39 1580.51 1619.57 1588.74 1625.21C1593.51 1628.48 1597 1629.52 1599.26 1629.52C1600.2 1629.52 1600.62 1628.63 1600.74 1627.95C1601.27 1624.89 1596.13 1621.41 1583.52 1612.96C1578.64 1609.69 1576.7 1607.39 1571.66 1603.48C1558.64 1593.36 1550.72 1584.59 1549.26 1582.12C1546.29 1577.08 1541.7 1571.29 1538.55 1566.1C1532.99 1556.96 1524.77 1545.08 1520.92 1539.32C1517.14 1533.65 1512.8 1530.85 1510.64 1529.37C1513.18 1531.25 1516.16 1533.76 1517.29 1535.22C1517.96 1536.02 1518.86 1536.91 1519.78 1537.83" stroke="#A82D54" stroke-width="10" stroke-linecap="round"/>
<path d="M1505.55 1525.64C1506 1525.64 1508.24 1526.31 1511.07 1527.66C1511.43 1529.01 1511.2 1530.6 1512.09 1532.51C1512.77 1533.53 1513.89 1534.65 1515.04 1535.8" stroke="#A82D54" stroke-width="10" stroke-linecap="round"/>
<path d="M1609.89 1629.3C1613.92 1631.53 1624.31 1637.86 1634.42 1641.91C1640.84 1644.48 1650.35 1646.86 1660.78 1649.47C1671.2 1652.08 1682.38 1654.54 1689.15 1655.81C1695.91 1657.07 1697.92 1657.07 1706.11 1658.75C1714.3 1660.43 1728.61 1663.78 1739 1666.63C1749.39 1669.47 1755.43 1671.71 1761.11 1674.76C1779.01 1684.38 1779.71 1688.46 1780.39 1690.26C1780.72 1691.13 1780.62 1692.06 1778.38 1692.52C1766.43 1694.99 1763.02 1690.73 1759.63 1689.04C1756.4 1687.42 1752.64 1685.99 1746.54 1683.96C1742.62 1682.65 1735.5 1680.12 1726.93 1677.98C1718.69 1675.92 1710.21 1675.6 1699.07 1672.23C1692.53 1670.26 1684.58 1666.63 1675.73 1664C1657.75 1658.67 1646.26 1657.08 1643 1655.95C1639.64 1654.79 1636.1 1654.59 1628.36 1651.46C1622.19 1648.77 1611.46 1643.85 1605.26 1641.09C1599.06 1638.33 1597.72 1637.89 1595.66 1636.75" stroke="#A82D54" stroke-width="10" stroke-linecap="round"/>
<path d="M1600.4 1632.01C1603.09 1632.45 1607.15 1634.25 1616.8 1638.74C1623.66 1641.94 1634.96 1645.92 1642.73 1648.56C1654.39 1652.51 1663.36 1654.35 1671.93 1656.61C1678.62 1658.37 1685.73 1659.55 1692.61 1661.35C1696.97 1662.5 1700.43 1663.16 1709.18 1665.86C1716.1 1667.99 1728.21 1671.23 1735.1 1673.07C1745.8 1675.93 1753.02 1678.06 1758.81 1679.99C1762.32 1681.23 1765.92 1683.48 1769.65 1685.97C1770.45 1686.43 1771.12 1686.65 1773.17 1687.56" stroke="#A82D54" stroke-width="10" stroke-linecap="round"/>
<path d="M1576.69 1650.98C1576.24 1650.98 1570.65 1649.19 1561.06 1645.81C1553.8 1643.24 1550.27 1641.27 1542.44 1632.99C1535.03 1625.17 1521.64 1609.07 1513.94 1599.44C1506.24 1589.8 1504.9 1586.9 1502.87 1583.5C1500.84 1580.1 1498.15 1576.3 1494.65 1570.43C1491.14 1564.56 1486.89 1556.74 1483.36 1551.14C1477.65 1542.08 1471.03 1536.95 1462.49 1532.34C1451 1526.13 1440.09 1524.51 1433.11 1523.84C1429.28 1523.46 1424.79 1523.61 1422.38 1523.94C1419.96 1524.28 1419.74 1524.95 1419.74 1525.74C1419.72 1530.08 1427.38 1534.65 1432.82 1537.82C1434.92 1539.05 1436.44 1540.54 1438.13 1541.78C1440.2 1543.3 1451.03 1549.74 1465.71 1560.01C1472.65 1564.87 1478.86 1570.75 1486.86 1580.56C1493.54 1588.73 1499.64 1598.53 1506.41 1606.88C1509.8 1611.06 1515.66 1619.51 1526.03 1632.37C1534.55 1642.93 1543.24 1648.47 1548.76 1652.19C1552.72 1654.35 1556.79 1656.38 1560.85 1658.53C1562.46 1659.33 1563.13 1659.55 1564.5 1659.78" stroke="#A82D54" stroke-width="10" stroke-linecap="round"/>
<path d="M1567.2 1659.78C1567.2 1659.34 1567.43 1658.21 1567.77 1656.3C1567.95 1655.29 1567.88 1654.16 1565.76 1652.8C1555.26 1646.09 1550.29 1645.57 1542.28 1639.82C1536.3 1635.53 1533.11 1629.54 1530.41 1624.46C1527.17 1618.39 1523.18 1615.31 1520.36 1611.02C1516.96 1605.86 1512.34 1601.76 1508.51 1598.04C1502.43 1592.14 1499.71 1584.19 1494.62 1575.8C1490.63 1569.24 1486.83 1567.43 1483.55 1564.05C1476.99 1557.28 1466.95 1553.88 1461.21 1550.72C1450.38 1544.77 1445.5 1541.91 1440.87 1538.64C1437.24 1536.07 1434.87 1531.98 1434.64 1529.6C1433.96 1522.77 1445.92 1532.18 1448.97 1533.76C1453.64 1536.18 1461.91 1539.39 1468.61 1542.57C1474.21 1545.22 1476.19 1545.96 1476.98 1547.31C1477.36 1547.97 1477.54 1548.66 1476.21 1548.22C1467.37 1545.34 1462.9 1541.46 1459.03 1540.2C1450.62 1537.45 1473.91 1551.37 1482.15 1556.34C1483.26 1557.01 1482.98 1555.03 1481.74 1553.44C1478.96 1549.87 1475.3 1548 1469.25 1545.09C1455.79 1538.6 1444.82 1534.01 1440.99 1531.86C1436.72 1529.95 1433.74 1528.8 1432.39 1528.35C1431.71 1528.12 1431.04 1527.9 1428.99 1526.32" stroke="#A82D54" stroke-width="10" stroke-linecap="round"/>
<path d="M1572.63 1655.04C1573.07 1655.04 1573.52 1655.04 1590.29 1662.42C1607.07 1669.8 1640.16 1684.55 1662.01 1693.72C1683.86 1702.89 1693.48 1706.02 1701.9 1708.19C1710.31 1710.36 1717.25 1711.48 1721.71 1712.05C1726.17 1712.63 1727.96 1712.63 1735.93 1714.08C1743.89 1715.54 1757.98 1718.44 1767.13 1720.83C1786.75 1725.96 1792.79 1732.26 1796.08 1735.31C1797.96 1737.06 1797.56 1741.29 1796.33 1744.68C1792.68 1754.73 1775.66 1741.76 1768.6 1740.09C1762.39 1738.61 1751.04 1735.05 1743.49 1733.1C1735.94 1731.15 1732.58 1730.71 1718.9 1727.23C1705.21 1723.76 1681.28 1717.28 1660.13 1709.69C1638.97 1702.1 1621.31 1693.61 1611.76 1688.89C1601.23 1683.69 1593.92 1679.02 1583.65 1672.92C1576.93 1668.6 1573.32 1666.79 1570.04 1664.65C1569.24 1664.08 1568.57 1663.63 1567.88 1663.17" stroke="#A82D54" stroke-width="10" stroke-linecap="round"/>
<path d="M1567.88 1657.75C1568.78 1657.98 1569.67 1658.2 1573.26 1660.1C1576.85 1662.01 1583.11 1665.58 1604.11 1674.36C1625.11 1683.13 1660.66 1696.99 1688.48 1706.48C1716.29 1715.97 1735.29 1720.66 1746.31 1723.53C1763.98 1728.12 1768.86 1729.78 1775.51 1731.93C1783.66 1734.56 1786.03 1737.68 1789.52 1740.4C1791.52 1741.95 1784.54 1738.86 1769.77 1732.88C1759.09 1728.56 1752.18 1727.32 1741.98 1724.06C1733.86 1721.47 1719.48 1717.9 1711.1 1715.83C1700.77 1713.28 1693.5 1711.52 1684.14 1708.03C1676.61 1705.21 1671.34 1702.47 1664.93 1700C1660.69 1698.37 1654.73 1695.3 1646.81 1692.01C1618.74 1680.36 1615.99 1679.89 1615.31 1679.77C1615.2 1679.75 1615.97 1680.33 1626.6 1684.92C1637.23 1689.51 1657.8 1698.23 1669.96 1703.05C1682.12 1707.88 1685.25 1708.55 1683.85 1708C1676.58 1705.17 1669.52 1703.82 1665.15 1702.26C1654.4 1698.41 1645.15 1693.44 1638.06 1690.86C1633.63 1689.24 1627.63 1686.71 1625.52 1686.11C1624.8 1685.91 1636.45 1692.04 1641.72 1694.22C1645.43 1695.75 1621.51 1685.45 1628.98 1688.69C1636.44 1691.94 1668.41 1705.8 1685.22 1712.94C1702.02 1720.08 1702.69 1720.08 1703.38 1720.08" stroke="#A82D54" stroke-width="10" stroke-linecap="round"/>
<path d="M1332.42 1557.41C1333.09 1557.41 1334.8 1557.41 1338.04 1558.09C1342.66 1559.06 1358.31 1566.95 1380.72 1576.18C1393.54 1581.47 1407.31 1590.9 1424.08 1602.36C1433.72 1608.95 1439.91 1616.61 1446.92 1626.17C1453.58 1635.28 1457.06 1641.65 1460.13 1644.88C1464.77 1649.78 1473.09 1661.78 1484.39 1673.94C1491.99 1681.02 1499.49 1687.17 1508.23 1692.32C1510.47 1693.69 1512.84 1695.39 1515.29 1698.16" stroke="#A82D54" stroke-width="20" stroke-linecap="round"/>
<path d="M1847.12 1830.69C1842.03 1827.29 1829.02 1817.72 1822.15 1812.22C1810.44 1802.82 1800.93 1799.54 1783.51 1792.88C1758.95 1783.48 1751.94 1787.2 1739.2 1784.31C1728.14 1781.81 1707.81 1777.02 1696.15 1774.07C1684.48 1771.11 1682.11 1770.1 1668.17 1766.18C1654.24 1762.27 1628.81 1755.49 1606.22 1747.42C1583.62 1739.35 1564.64 1730.19 1554.01 1724.8C1537.23 1714.62 1529.01 1707.78 1525.4 1702.63C1524.54 1701.59 1523.52 1700.91 1521.45 1699.19" stroke="#A82D54" stroke-width="20" stroke-linecap="round"/>
<path d="M1852.26 1890.28C1851.58 1889.6 1850.9 1888.92 1836.65 1882.47C1822.4 1876.02 1794.6 1863.81 1761.47 1853.29C1728.33 1842.76 1690.7 1834.29 1653.85 1821.95C1617 1809.62 1582.08 1793.68 1554.94 1779.54C1527.8 1765.4 1509.49 1753.54 1499.38 1747.08C1489.27 1740.63 1487.92 1739.95 1486.52 1739.26" stroke="#A82D54" stroke-width="20" stroke-linecap="round"/>
<path d="M1810.14 1922.12C1808.78 1921.11 1807.43 1920.09 1799.1 1915.16C1790.77 1910.23 1775.52 1901.41 1757.32 1892.8C1739.12 1884.19 1718.44 1876.06 1687.78 1866.44C1657.12 1856.83 1617.12 1845.98 1586.51 1835.81C1555.9 1825.65 1535.89 1816.49 1524.06 1810.76C1503.23 1800.66 1497.84 1793.05 1488.79 1785.52C1485.53 1782.78 1481.47 1779.05 1477.17 1775.61C1472.87 1772.16 1468.46 1769.11 1462.89 1764.94" stroke="#A82D54" stroke-width="20" stroke-linecap="round"/>
<path d="M1260.5 1581.04C1270.71 1585.12 1286.83 1592.67 1300.11 1598.29C1309.74 1602.36 1324.92 1609.66 1335.32 1615.03C1351.13 1623.18 1360.79 1631 1375.44 1643.26C1385.47 1651.65 1400.26 1665.02 1408.29 1672.34C1417.19 1680.46 1420.06 1684.44 1428.91 1693.12C1445.14 1709.05 1459.44 1719.38 1464.39 1722.28C1471.1 1725.55 1474.18 1727.27 1476.23 1727.95C1477.26 1728.29 1478.28 1728.63 1479.33 1730.01" stroke="#A82D54" stroke-width="20" stroke-linecap="round"/>
<path d="M1201.94 1625.22C1203.3 1625.22 1205.69 1625.56 1223.01 1632.34C1238.74 1638.51 1268.12 1651.33 1284.84 1658.64C1301.56 1665.95 1304.62 1667.65 1314.32 1673.95C1324.03 1680.24 1340.31 1691.09 1351.06 1698.55C1366.77 1709.43 1373.83 1715.94 1382.51 1722.93C1408.88 1744.15 1415.94 1745.4 1424.33 1750.88C1429.49 1754.25 1436.14 1756.02 1441.3 1758.6C1442.33 1759.11 1443.35 1759.45 1444.38 1759.8C1445.42 1760.14 1446.43 1760.48 1447.48 1760.83" stroke="#A82D54" stroke-width="20" stroke-linecap="round"/>
<path d="M1199.89 1696.11C1203.96 1698.82 1210.12 1701.91 1222.39 1707.87C1230.7 1711.91 1242.79 1718.91 1250.77 1723.76C1258.75 1728.61 1262.14 1731.32 1273.55 1738.31C1284.96 1745.31 1304.29 1756.49 1316.11 1763.61C1331.87 1773.11 1338.89 1777.94 1345.72 1781.69C1358.32 1788.62 1363.22 1792.33 1376.54 1798.13C1386.85 1801.24 1391.99 1802.26 1394.21 1803.12C1395.41 1803.63 1396.77 1804.31 1400.22 1806.03" stroke="#A82D54" stroke-width="20" stroke-linecap="round"/>
<path d="M1191.67 1760.83C1199.83 1762.86 1217.64 1770.04 1235.01 1778.4C1246.79 1784.06 1265.27 1791.16 1276.22 1795.85C1290.38 1801.9 1295.07 1804.66 1300.69 1807.38C1310.96 1812.35 1322.43 1820.04 1331.5 1826.2C1339.6 1831.71 1347.09 1837.84 1355.81 1844.34C1359.12 1846.78 1360.13 1847.46 1361.18 1848.16" stroke="#A82D54" stroke-width="20" stroke-linecap="round"/>
<path d="M1743.36 2015.61C1743.36 2014.94 1738.95 2010.52 1728.04 2001.64C1721.76 1996.54 1713.05 1991.41 1679.02 1975.05C1644.99 1958.7 1585.66 1931.58 1553.06 1917.1C1520.46 1902.62 1516.39 1901.6 1499.72 1893.95C1483.05 1886.31 1453.89 1872.07 1435.99 1862.7C1405.71 1844.06 1401.62 1840.63 1396.82 1836.7C1395.44 1835.5 1393.75 1834.14 1389.95 1832.74" stroke="#A82D54" stroke-width="20" stroke-linecap="round"/>
<path d="M1659.12 2046.44C1658.1 2045.08 1657.08 2043.72 1642.49 2035.06C1627.89 2026.39 1599.76 2010.46 1569.66 1994.96C1539.57 1979.46 1508.38 1964.88 1490.79 1956.19C1473.19 1947.49 1470.14 1945.12 1451.45 1933.89C1432.76 1922.67 1398.52 1902.67 1379.69 1891.68C1360.86 1880.7 1358.49 1879.35 1355.91 1878.14C1353.33 1876.93 1350.62 1875.91 1345.77 1872.81" stroke="#A82D54" stroke-width="20" stroke-linecap="round"/>
<path d="M1188.59 1819.39C1189.94 1819.39 1207.93 1827.19 1235.32 1839.34C1247.6 1844.79 1255.31 1848.12 1263.87 1853.6C1272.81 1860.81 1284.74 1869.67 1297.74 1879.59C1302.94 1883.41 1305.31 1884.77 1307.76 1887.19" stroke="#A82D54" stroke-width="20" stroke-linecap="round"/>
<path d="M1581.04 2084.45C1580.7 2083.43 1580.36 2082.41 1576.62 2078.84C1572.89 2075.26 1565.77 2069.16 1529.89 2044.15C1494.02 2019.14 1429.6 1975.4 1395.74 1952.2C1360.32 1927.92 1357.77 1925.22 1355.21 1923.17C1350.17 1919.14 1344.76 1914.95 1338.94 1911.18C1334.14 1909.12 1330.03 1907.06 1327.47 1905.87C1326.26 1905.35 1325.24 1905.01 1322.14 1903.63" stroke="#A82D54" stroke-width="20" stroke-linecap="round"/>
<path d="M1463.92 2090.61C1463.24 2090.61 1461.19 2088.58 1440.15 2070.41C1421.08 2053.94 1383.84 2024.1 1356.5 2002.96C1329.16 1981.82 1312.55 1970.64 1302.97 1964.03C1288.25 1953.63 1285.17 1952.27 1282.95 1950.9C1281.75 1950.21 1280.39 1949.54 1278.99 1948.84" stroke="#A82D54" stroke-width="20" stroke-linecap="round"/>
<path d="M1375.56 2093.69C1375.23 2093.35 1374.89 2093.02 1363.18 2083.35C1351.48 2073.68 1328.43 2054.7 1307.4 2038.64C1286.37 2022.59 1268.06 2010.05 1257.95 2003.25C1247.84 1996.44 1246.49 1995.77 1243.04 1994.04" stroke="#A82D54" stroke-width="20" stroke-linecap="round"/>
<path d="M1265.64 2090.61C1262.25 2087.22 1255.08 2080.05 1241.77 2068.27C1212.23 2046.45 1207.45 2043.7 1202.81 2041.48C1201.61 2040.96 1200.26 2040.62 1196.8 2039.24" stroke="#A82D54" stroke-width="20" stroke-linecap="round"/>
<path d="M1223.51 2121.43C1221.13 2119.74 1214.31 2112.23 1195.51 2098.54C1188.3 2092.38 1181.77 2087.21 1175.61 2083.45C1173.18 2082.05 1172.17 2081.72 1169.06 2080.34" stroke="#A82D54" stroke-width="20" stroke-linecap="round"/>
<path d="M1151.6 1862.54C1152.28 1863.22 1159.41 1869.33 1173.92 1880.77C1181.45 1886.71 1190.13 1891.88 1202.12 1896.54C1214.11 1901.2 1229.37 1904.93 1238.25 1907.36C1254.31 1911.75 1266.93 1918.32 1274.01 1921.26C1275.21 1921.78 1276.57 1922.45 1277.77 1923.14C1278.98 1923.83 1280 1924.51 1281.05 1925.21" stroke="#A82D54" stroke-width="20" stroke-linecap="round"/>
<path d="M1147.49 1926.23C1148.17 1926.23 1156.65 1930.64 1179.15 1940.71C1193.52 1946.37 1213.86 1953.15 1225.86 1956.98C1237.87 1960.82 1240.92 1961.49 1245.09 1964.25" stroke="#A82D54" stroke-width="20" stroke-linecap="round"/>
<path d="M1135.16 1978.63C1144.67 1982.02 1166.62 1991.62 1176.4 1995.91C1182.06 1999.17 1186.52 2002.25 1191.11 2005.65C1194.69 2008.04 1200.79 2011.77 1207.08 2016.64" stroke="#A82D54" stroke-width="20" stroke-linecap="round"/>
<path d="M1099.21 2015.61C1099.88 2015.61 1105.66 2017.65 1117.1 2022.43C1129.55 2028.56 1141.95 2036.8 1153.23 2045.69C1158.74 2049.83 1163.83 2053.22 1170.09 2057.74" stroke="#A82D54" stroke-width="20" stroke-linecap="round"/>
<path d="M685.504 1950.03C685.639 1950.03 685.775 1950.03 685.845 1954.3C685.915 1958.58 685.915 1967.13 685.779 1972.82C685.582 1981.1 684.685 1984.97 684.001 1987.5C683.587 1990.17 683.176 1992.38 682.765 1993.82C682.625 1994.44 682.625 1994.85 682.625 1995.27" stroke="#A82D54" stroke-width="20" stroke-linecap="round"/>
<path d="M723.75 1950.85C723.75 1950.99 723.75 1951.12 722.392 1957.23C721.035 1963.34 718.321 1975.42 715.905 1983.74C711.453 1996.28 709.22 2001.02 708.811 2001.91C708.538 2002.39 708.13 2002.93 707.711 2003.49" stroke="#A82D54" stroke-width="20" stroke-linecap="round"/>
<path d="M765.697 1950.85C765.425 1950.85 764.878 1952.62 763.651 1956.92C761.965 1962.82 759.672 1968.78 756.947 1976.29C755.17 1981.18 751.509 1987.86 748.607 1992.99C740.343 2005.4 738.423 2007.46 737.464 2008.76C737.049 2009.38 736.778 2009.92 736.498 2010.89" stroke="#A82D54" stroke-width="20" stroke-linecap="round"/>
<path d="M806.41 1912.61C806.41 1913.01 806.41 1913.42 803.425 1926.45C800.439 1939.49 794.468 1965.14 790.51 1980.52C786.551 1995.91 784.787 2000.25 782.996 2003.91C779.737 2010.58 775.452 2015.94 771.89 2020.05C769.958 2021.99 768.855 2022.95 767.829 2023.91C767.346 2024.32 766.939 2024.6 766.52 2024.88" stroke="#A82D54" stroke-width="20" stroke-linecap="round"/>
<path d="M843.833 1939.34C843.833 1939.47 843.833 1939.61 841.73 1948.77C839.626 1957.93 835.419 1976.12 830.606 1991.25C825.792 2006.39 820.499 2017.93 816.958 2024.89C811.789 2033.88 809.161 2036.79 807.247 2038.57C806.282 2039.53 805.333 2040.62 803.531 2041.74" stroke="#A82D54" stroke-width="20" stroke-linecap="round"/>
<path d="M890.716 1968.95C890.716 1969.08 890.716 1969.22 885.695 1980.08C880.674 1990.94 870.631 2012.51 863.557 2026.21C856.484 2039.9 852.684 2045.06 850.387 2047.99C845.084 2054.19 840.421 2059.95 838.768 2061.88C838.356 2062.29 837.813 2062.7 836.432 2063.94" stroke="#A82D54" stroke-width="20" stroke-linecap="round"/>
<path d="M945.412 1942.21C945.412 1942.35 945.412 1942.49 942.766 1951.92C940.119 1961.35 934.826 1980.08 928.3 1997.4C921.773 2014.71 914.174 2030.05 908.562 2040.46C902.951 2050.87 899.558 2055.89 892.721 2063.36C885.884 2070.84 875.706 2080.61 865.219 2090.67" stroke="#A82D54" stroke-width="20" stroke-linecap="round"/>
<path d="M970.087 2021.59C969.951 2021.72 969.815 2021.86 967.506 2026.68C965.197 2031.5 960.718 2041 952.711 2053.9C944.705 2066.8 933.305 2082.81 926.279 2092.28C919.252 2101.75 916.945 2104.2 913.857 2107.08C910.768 2109.97 906.968 2113.23 904.74 2115.04C902.511 2116.86 901.968 2117.13 900.586 2117.41" stroke="#A82D54" stroke-width="20" stroke-linecap="round"/>
<path d="M993.526 2079.57C993.526 2079.84 992.712 2082.15 989.986 2087.89C988.249 2091.54 985.088 2096.33 979.75 2103.19C974.412 2110.05 966.812 2118.74 959.504 2126.2C952.196 2133.66 945.411 2139.63 940.49 2143.66C935.569 2147.68 932.72 2149.58 929.783 2151.54" stroke="#A82D54" stroke-width="20" stroke-linecap="round"/>
<path d="M1016.97 2138.38C1016.97 2138.65 1014.66 2141.37 1008.59 2147.45C1004.95 2151.08 999.664 2155.29 996.668 2157.66C991.688 2161.61 987.516 2163.59 979.276 2168.16C972.937 2171.37 962.216 2176.39 955.81 2179.25C949.405 2182.1 947.641 2182.65 945.412 2183.62" stroke="#A82D54" stroke-width="20" stroke-linecap="round"/>
<path d="M621.35 2016.24C621.621 2016.24 624.068 2017.05 630.413 2018.83C634.411 2019.95 640.152 2020.88 645.327 2021.57C650.503 2022.27 654.981 2022.54 658.306 2022.61C663.666 2022.73 670.107 2021.05 677.298 2018.72C681.367 2017.21 684.661 2015.43 688.22 2013.38C689.744 2012.54 690.694 2012.14 691.673 2011.72" stroke="#A82D54" stroke-width="20" stroke-linecap="round"/>
<path d="M641.5 1987.45C642.314 1987.72 649.112 1989.76 659.251 1992.71C668.605 1995.12 676.588 1997.46 677.885 1997.93C678.64 1998.28 679.59 1998.82 681.391 1999.38" stroke="#A82D54" stroke-width="20" stroke-linecap="round"/>
<path d="M629.162 2064.77C629.434 2064.77 633.916 2065.58 644.364 2066.81C650.441 2067.53 658.204 2067.23 665.786 2066.42C673.367 2065.61 680.56 2063.98 685.283 2062.73C690.006 2061.48 692.042 2060.67 696.348 2058.01C700.653 2055.35 707.167 2050.87 712.084 2046.8C717 2042.73 720.122 2039.2 722.205 2036.5C726.624 2029.68 727.722 2027.63 728.201 2025.92C728.408 2025.16 728.544 2024.61 728.684 2024.05" stroke="#A82D54" stroke-width="20" stroke-linecap="round"/>
<path d="M771.453 2041.33C771.318 2041.46 771.182 2041.6 768.466 2044.99C765.749 2048.39 760.457 2055.04 754.066 2061.92C747.675 2068.81 740.347 2075.73 732.636 2082.08C724.925 2088.43 717.054 2093.99 703.838 2100.93C690.623 2107.87 672.302 2116.01 659.606 2121.08C646.911 2126.16 640.397 2127.93 633.686 2129.74" stroke="#A82D54" stroke-width="20" stroke-linecap="round"/>
<path d="M810.11 2058.6C809.975 2058.6 809.839 2058.6 803.73 2066.06C797.621 2073.53 785.542 2088.45 774.299 2100.56C763.055 2112.66 753.013 2121.48 743.157 2129.01C733.302 2136.54 723.938 2142.51 718.707 2145.72C713.475 2148.93 712.661 2149.2 711.822 2149.48" stroke="#A82D54" stroke-width="20" stroke-linecap="round"/>
<path d="M838.898 2074.64C838.898 2074.91 838.491 2076.54 835.771 2083.15C833.634 2088.33 829.251 2096.94 822.13 2108C815.009 2119.06 805.102 2132.22 795.656 2143.28C786.209 2154.33 777.524 2162.88 766.06 2171.97C754.597 2181.05 740.619 2190.42 731.857 2195.99C723.095 2201.56 719.974 2203.05 715.936 2204.59" stroke="#A82D54" stroke-width="20" stroke-linecap="round"/>
<path d="M873.855 2102.6C873.719 2102.74 873.584 2102.87 870.732 2108.91C867.88 2114.96 862.316 2126.9 857.346 2136.04C852.376 2145.17 848.169 2151.14 841.251 2159.11C834.334 2167.07 824.834 2176.84 815.191 2185.4C805.547 2193.96 796.047 2201.02 783.757 2208.39C771.467 2215.76 756.674 2223.22 741.434 2230.91" stroke="#A82D54" stroke-width="20" stroke-linecap="round"/>
<path d="M899.764 2129.74C899.628 2129.74 899.492 2129.74 896.369 2136.39C893.245 2143.04 887.138 2156.34 882.703 2165.37C878.268 2174.39 875.689 2178.73 872.665 2183.21C869.64 2187.68 866.247 2192.16 862.192 2196.84C858.137 2201.53 853.523 2206.28 843.953 2213.74C834.384 2221.21 819.998 2231.26 804.766 2242.01" stroke="#A82D54" stroke-width="20" stroke-linecap="round"/>
<path d="M927.317 2167.99C927.181 2168.13 927.046 2168.26 922.294 2175.73C917.542 2183.19 908.178 2197.99 900.572 2208.52C892.966 2219.06 887.401 2224.9 884.264 2228.11C881.126 2231.32 880.583 2231.72 879.201 2232.56" stroke="#A82D54" stroke-width="20" stroke-linecap="round"/>
<path d="M945.823 2204.18C945.823 2204.45 945.008 2206.22 940.043 2213.71C936.074 2219.69 928.427 2229.61 922.614 2236.62C916.801 2243.62 912.865 2247.29 910.431 2249.45C907.996 2251.6 907.182 2252.15 905.932 2252.71" stroke="#A82D54" stroke-width="20" stroke-linecap="round"/>
<path d="M1972.8 2017.6C1965.64 2025.86 1958.93 2034.52 1953.51 2042.7C1949.48 2049.51 1945.3 2058.14 1941.27 2067.44C1939.72 2071.24 1939.16 2073.17 1938.6 2075.16" stroke="#A82D54" stroke-width="20" stroke-linecap="round"/>
<path d="M1995.32 2035.95C1990.63 2040.36 1976.75 2055.34 1971.7 2063.46C1970.86 2064.85 1969.76 2066.23 1968.92 2067.63C1968.08 2069.03 1967.53 2070.4 1966.12 2072.65" stroke="#A82D54" stroke-width="20" stroke-linecap="round"/>
<path d="M2027.02 2074.32C2020.67 2077.64 1998.51 2081.55 1985.35 2080.17C1982.57 2079.61 1978.99 2079.06 1976.18 2078.36C1973.37 2077.67 1971.45 2076.84 1969.46 2075.99" stroke="#A82D54" stroke-width="20" stroke-linecap="round"/>
<path d="M1949.44 2087.67C1949.99 2087.67 1956.06 2091.8 1970.32 2100.53C1978.55 2105.57 1989.82 2110.09 2000.17 2113.47C2010.52 2116.85 2019.88 2118.5 2025.66 2119.35C2031.45 2120.2 2033.38 2120.2 2035.36 2120.2" stroke="#A82D54" stroke-width="20" stroke-linecap="round"/>
<path d="M1901.06 2099.35C1901.06 2101 1902.71 2104.6 1911.54 2113.32C1918.19 2119.87 1931.39 2128.36 1941.77 2134.83C1952.14 2141.3 1959.85 2144.88 1966.57 2147.68C1986.13 2154.68 1992.23 2156.34 1996.96 2158.14C1998.92 2158.85 2000.03 2159.12 2001.16 2159.41" stroke="#A82D54" stroke-width="20" stroke-linecap="round"/>
<path d="M1925.25 2028.44C1923.6 2029.54 1917.52 2036.72 1907.53 2050.99C1898.64 2067.2 1893.83 2079.02 1893 2084.85C1892.72 2087.64 1892.72 2090.12 1892.72 2092.67" stroke="#A82D54" stroke-width="20" stroke-linecap="round"/>
<path d="M1873.53 2041.79C1873.53 2042.34 1871.6 2044.28 1866.62 2049.26C1858.86 2057.01 1851.6 2068.15 1845.21 2078.42C1838.22 2091.83 1836.84 2097.64 1835.58 2104.31C1835.16 2106.85 1835.16 2107.67 1834.32 2108.52" stroke="#A82D54" stroke-width="20" stroke-linecap="round"/>
<path d="M1839.33 2118.53C1841.26 2122.12 1849.85 2132.11 1869.74 2146.5C1884.48 2157.15 1910.55 2171.89 1925.81 2180.66C1945.19 2191.07 1954.67 2193.88 1963.7 2195.55C1967.49 2196.11 1969.7 2196.11 1971.96 2196.11" stroke="#A82D54" stroke-width="20" stroke-linecap="round"/>
<path d="M1770.09 2132.71C1771.75 2134.92 1773.4 2137.12 1783.33 2147.06C1793.27 2157.01 1811.44 2174.62 1828.78 2188.93C1846.12 2203.24 1862.09 2213.7 1875.13 2221.43C1888.17 2229.15 1897.81 2233.83 1906.62 2237.35C1915.44 2240.86 1923.15 2243.06 1931.92 2245.33" stroke="#A82D54" stroke-width="20" stroke-linecap="round"/>
<path d="M1817.64 2052.63C1815.44 2054.29 1812.38 2057.06 1806.02 2065.76C1801.58 2072.54 1794.7 2084.1 1789.51 2094.32C1784.31 2104.54 1781.01 2113.08 1777.6 2121.87" stroke="#A82D54" stroke-width="20" stroke-linecap="round"/>
<path d="M1749.24 2075.99C1748.14 2077.64 1739.59 2085.1 1723.64 2099.65C1706.54 2115.25 1699.2 2127.97 1697.53 2131.3C1696.69 2132.71 1695.87 2133.53 1695.31 2134.37C1694.74 2135.21 1694.47 2136.04 1694.18 2138.55" stroke="#A82D54" stroke-width="20" stroke-linecap="round"/>
<path d="M1822.65 2242.83C1821 2242.28 1819.34 2241.73 1810.65 2238C1801.95 2234.28 1786.26 2227.39 1775.84 2222.33C1765.41 2217.28 1760.73 2214.25 1753.23 2209.93C1745.73 2205.62 1735.54 2200.12 1724.24 2192.19C1712.94 2184.26 1700.82 2174.07 1694.31 2168.28C1687.79 2162.48 1687.24 2161.38 1686.82 2160.4C1686.4 2159.42 1686.13 2158.59 1685.01 2156.91" stroke="#A82D54" stroke-width="20" stroke-linecap="round"/>
<path d="M1634.96 2106.02C1633.86 2106.57 1623.93 2114.29 1605.76 2129.82C1596.94 2137.91 1588.96 2146.45 1584.71 2151.25C1580.46 2156.06 1580.18 2156.89 1579.07 2158.57" stroke="#A82D54" stroke-width="20" stroke-linecap="round"/>
<path d="M1710.87 2260.34C1686.09 2247.13 1670.03 2238.4 1659.79 2230.8C1652.86 2225.12 1642.4 2215.77 1631.78 2204.2C1621.16 2192.63 1610.7 2179.15 1599.92 2164.41" stroke="#A82D54" stroke-width="20" stroke-linecap="round"/>
<path d="M1623.28 2281.2C1621.34 2279.82 1613.33 2273.45 1601.68 2265.55C1595.65 2261.46 1590.03 2256.27 1583.88 2250C1577.74 2243.74 1571.41 2236.3 1565.81 2228.34C1560.21 2220.39 1555.53 2212.13 1551.74 2204.43C1547.95 2196.74 1545.2 2189.86 1543.51 2185.35C1541.81 2180.84 1541.26 2178.91 1540.7 2176.93" stroke="#A82D54" stroke-width="20" stroke-linecap="round"/>
<path d="M1526.51 2119.37C1525.41 2119.37 1519.06 2124.05 1507.83 2133.62C1496.92 2142.9 1488.18 2153.79 1481.51 2162.41C1478.15 2167.17 1476.47 2169.41 1475.08 2171.07C1474.52 2171.91 1474.24 2172.74 1473.96 2174.42" stroke="#A82D54" stroke-width="20" stroke-linecap="round"/>
<path d="M1528.18 2287.04C1527.08 2285.94 1517.43 2277.39 1500.5 2261.57C1492.4 2254.01 1486.32 2246.31 1480.17 2237.53C1474.02 2228.75 1468.24 2218.84 1464.57 2211.67C1460.91 2204.5 1459.53 2200.37 1458.68 2197.14C1457.84 2193.91 1457.56 2191.71 1457.28 2188.6" stroke="#A82D54" stroke-width="20" stroke-linecap="round"/>
<path d="M1440.59 2124.37C1437.84 2126.02 1433.39 2129.08 1425.23 2136.41C1411.85 2148.41 1404.18 2160.49 1400.99 2166.18C1399.18 2169.11 1396.98 2172.14 1395.57 2174.25C1394.16 2176.36 1393.61 2177.46 1392.21 2178.59" stroke="#A82D54" stroke-width="20" stroke-linecap="round"/>
<path d="M1444.76 2279.53C1444.21 2278.98 1434.3 2267.96 1417.77 2248.25C1410.5 2239.58 1407.03 2232.4 1402.98 2224.04C1398.93 2215.67 1394.8 2206.04 1392.53 2200.53C1390.27 2195.01 1389.99 2193.91 1388.88 2192.78" stroke="#A82D54" stroke-width="20" stroke-linecap="round"/>
<path d="M1348 2126.04C1343.59 2128.79 1337.75 2134.07 1328.06 2146.65C1321.56 2155.09 1313.41 2168.87 1308.88 2176.37C1304.07 2184.97 1303.51 2186.93 1302.96 2188.59C1302.68 2189.43 1302.4 2190.26 1302.12 2191.11" stroke="#A82D54" stroke-width="20" stroke-linecap="round"/>
<path d="M1282.93 2131.88C1281.83 2134.08 1276.86 2140.72 1267.02 2154.43C1255.26 2173.37 1248.18 2185.81 1247.35 2188.45C1247.06 2189.71 1247.06 2190.81 1247.06 2191.94" stroke="#A82D54" stroke-width="20" stroke-linecap="round"/>
<path d="M1286.27 2284.53C1282.42 2280.13 1277.4 2274.28 1270.48 2265.01C1260.95 2252.26 1255.42 2239.81 1252.09 2231.21C1248.77 2220.97 1246.51 2212.27 1245.68 2207.13C1245.4 2205.02 1245.4 2203.92 1245.4 2202.79" stroke="#A82D54" stroke-width="20" stroke-linecap="round"/>
<path d="M1358.01 2279.53C1355.26 2278.43 1344.75 2270.98 1328.93 2257.66C1316.41 2247.13 1311.87 2235.64 1308.4 2228.28C1304.35 2217.26 1303.79 2212.81 1302.4 2207.95C1302.12 2206.69 1302.12 2205.59 1302.12 2204.45" stroke="#A82D54" stroke-width="20" stroke-linecap="round"/>
<path d="M972.27 2306C983.513 2233.17 940.899 2069 680.499 1995C674.999 1994.83 666.699 1996.6 677.499 2005C791.832 2037.17 1006.1 2149.41 948.499 2341.01C955.832 2329.98 963.764 2318.29 972.27 2306Z" fill="#922145"/>
<path d="M1606.5 1641.5C1714.7 1565.1 1697.25 1564 1675 1573C1366.51 1791.39 1102.32 2118.16 972.27 2306C963.764 2318.29 955.832 2329.98 948.499 2341.01C940.018 2353.76 932.339 2365.63 925.499 2376.5C923.899 2400.9 940.166 2386.67 948.499 2376.5C963.988 2347.97 983.521 2316.84 1006.12 2284C1013.24 2273.66 1020.66 2263.15 1028.35 2252.5C1195.82 2020.68 1493.02 1721.63 1606.5 1641.5Z" fill="#922145"/>
<path d="M1974.5 2068.5C1417.5 2229 1137.5 2156.5 1028.35 2252.5C1020.66 2263.15 1013.24 2273.66 1006.12 2284C1079.21 2185 1653 2206 1979.5 2081.5C2000.03 2073.67 1983.83 2067.83 1974.5 2068.5Z" fill="#922145"/>
<path d="M972.27 2306C1102.32 2118.16 1366.51 1791.39 1675 1573C1697.25 1564 1714.7 1565.1 1606.5 1641.5C1493.02 1721.63 1195.82 2020.68 1028.35 2252.5M972.27 2306C983.513 2233.17 940.899 2069 680.499 1995C674.999 1994.83 666.699 1996.6 677.499 2005C791.832 2037.17 1006.1 2149.41 948.499 2341.01M972.27 2306C963.764 2318.29 955.832 2329.98 948.499 2341.01M948.499 2341.01C940.018 2353.76 932.339 2365.63 925.499 2376.5C923.899 2400.9 940.166 2386.67 948.499 2376.5C963.988 2347.97 983.521 2316.84 1006.12 2284M1028.35 2252.5C1137.5 2156.5 1417.5 2229 1974.5 2068.5C1983.83 2067.83 2000.03 2073.67 1979.5 2081.5C1653 2206 1079.21 2185 1006.12 2284M1028.35 2252.5C1020.66 2263.15 1013.24 2273.66 1006.12 2284" stroke="#922145"/>
<path d="M439.5 677C492 661.5 606.5 603.4 644.5 495C687.5 474.667 749.7 440.1 654.5 464.5C663.333 444.167 684.2 384 697 306C718 285.333 759.3 233.5 756.5 191.5C753 139 715.5 270 697 258C678.5 246 702.5 173.5 678.5 182.5C659.3 189.7 661.833 235.833 665.5 258C666.167 270.667 655.2 281.1 606 221.5C593.167 211.167 575.2 206.8 606 272C614.167 276.667 635.3 287.4 654.5 293C673.7 298.6 655.833 364 644.5 396C631.328 393.227 600.07 381.711 566.213 356.5C559.372 351.406 552.425 345.753 545.5 339.5C543.368 337.575 541.426 335.914 539.666 334.5C521.846 320.181 522.726 331.143 535.128 349.5C540.874 358.005 549.094 368.099 559.074 378C576.822 395.609 600.136 412.611 625 419C617.667 467.167 587.3 566.3 524.5 577.5C501.833 553.167 465.4 523.3 501 598.5C490 613.167 457.1 639.8 413.5 629C398.5 631.167 396.1 607.4 506.5 495C550.167 492.5 613.3 482.9 516.5 464.5L559.074 378C549.094 368.099 540.874 358.005 535.128 349.5L506.5 406C486.445 388.167 455.668 365.8 493 419C498 436.5 480.6 496.9 371 598.5C362.834 593.5 353.201 570.6 380 519C406.5 517.5 444.9 510.6 386.5 495C395.5 461.5 416.101 391.2 426.5 378C439.5 361.5 598.5 246.5 433.5 339.5C436.334 332.667 446.6 316.4 465 306C483.4 295.6 491.334 214.333 493 175C488.167 136.5 464.396 52.3081 456 70.5C450 83.5 448.5 107.833 456 121C428.167 99 385.9 74 439.5 150C452.191 167.995 461.077 180.458 467.065 188.724C466.445 186.418 465.746 184.336 465 182.5C468.999 199.5 486.368 215.369 467.065 188.724C473.934 214.258 471.098 267.239 413.5 317.5C412.667 272.5 407.9 187.5 395.5 207.5C388.14 210.333 377.836 234 395.5 306C410.5 347 397.3 434.1 360.5 486.5C331.5 488.667 289.5 498.9 353.5 522.5C351.833 540.833 343.699 577.5 324.499 577.5C300.499 577.5 222.499 499.5 335.499 406C367.166 398.333 414.2 382.5 349 380.5C351.333 315.333 357.9 183.7 365.5 178.5C375 172 418 153 375.5 158C373 120.667 364.2 68.9 349 160.5C325 142.833 287.5 121 329.5 175C331 223.167 331.7 328.9 322.5 366.5C277.166 345 210.499 320.8 306.5 396C269.166 427.167 209.399 507.1 268.999 577.5C263.5 583.833 248.501 595.8 232.501 593C216.501 590.2 193.834 565.167 184.501 553C207.834 526.833 237.601 485.4 170.001 529C155.667 518.167 128.501 489.5 134.501 461.5C142.001 426.5 232.501 432 232.501 419C232.501 406 213.001 391 134.501 419C130.167 418.833 122.8 413 128 391C134.501 363.5 147.501 378.5 162.501 364C177.501 349.5 209.001 273.5 209.501 222.5C210.001 171.5 248.501 219 272.501 222.5C296.501 226 247.501 167.5 205.001 189C204.667 178.667 209.201 158 230.001 158C256.001 158 238.001 99.5 183.001 163.5C190.334 197.833 194.401 277.9 152.001 323.5C109.601 369.1 92.0008 383.167 88.5008 384.5C85.6674 420.833 84.0008 495.4 100.001 503C63.1671 530.667 14.6999 575.6 115.5 534C140.666 575.833 198.799 658.3 229.999 653.5C261.199 648.7 382.666 667.167 439.5 677Z" fill="#C37200"/>
<path d="M545.5 339.5C552.425 345.753 559.372 351.406 566.213 356.5C574.142 299.667 573.92 180.133 583 175C606 162 752.501 51.5 583 143C545.5 78.5 516.5 53 559.074 158L539.666 334.5C541.426 335.914 543.368 337.575 545.5 339.5Z" fill="#C37200"/>
<path d="M559.074 378C576.822 395.609 600.136 412.611 625 419C617.667 467.167 587.3 566.3 524.5 577.5C501.833 553.167 465.4 523.3 501 598.5C490 613.167 457.1 639.8 413.5 629C398.5 631.167 396.1 607.4 506.5 495C550.167 492.5 613.3 482.9 516.5 464.5L559.074 378ZM559.074 378C549.094 368.099 540.874 358.005 535.128 349.5M566.213 356.5C600.07 381.711 631.328 393.227 644.5 396C655.833 364 673.7 298.6 654.5 293C635.3 287.4 614.167 276.667 606 272C575.2 206.8 593.167 211.167 606 221.5C655.2 281.1 666.167 270.667 665.5 258C661.833 235.833 659.3 189.7 678.5 182.5C702.5 173.5 678.5 246 697 258C715.5 270 753 139 756.5 191.5C759.3 233.5 718 285.333 697 306C684.2 384 663.333 444.167 654.5 464.5C749.7 440.1 687.5 474.667 644.5 495C606.5 603.4 492 661.5 439.5 677C382.666 667.167 261.199 648.7 229.999 653.5C198.799 658.3 140.666 575.833 115.5 534C14.6999 575.6 63.1671 530.667 100.001 503C84.0008 495.4 85.6674 420.833 88.5008 384.5C92.0008 383.167 109.601 369.1 152.001 323.5C194.401 277.9 190.334 197.833 183.001 163.5C238.001 99.5 256.001 158 230.001 158C209.201 158 204.667 178.667 205.001 189C247.501 167.5 296.501 226 272.501 222.5C248.501 219 210.001 171.5 209.501 222.5C209.001 273.5 177.501 349.5 162.501 364C147.501 378.5 134.501 363.5 128 391C122.8 413 130.167 418.833 134.501 419C213.001 391 232.501 406 232.501 419C232.501 432 142.001 426.5 134.501 461.5C128.501 489.5 155.667 518.167 170.001 529C237.601 485.4 207.834 526.833 184.501 553C193.834 565.167 216.501 590.2 232.501 593C248.501 595.8 263.5 583.833 268.999 577.5C209.399 507.1 269.166 427.167 306.5 396C210.499 320.8 277.166 345 322.5 366.5C331.7 328.9 331 223.167 329.5 175C287.5 121 325 142.833 349 160.5C364.2 68.9 373 120.667 375.5 158C418 153 375 172 365.5 178.5C357.9 183.7 351.333 315.333 349 380.5C414.2 382.5 367.166 398.333 335.499 406C222.499 499.5 300.499 577.5 324.499 577.5C343.699 577.5 351.833 540.833 353.5 522.5C289.5 498.9 331.5 488.667 360.5 486.5C397.3 434.1 410.5 347 395.5 306C377.836 234 388.14 210.333 395.5 207.5C407.9 187.5 412.667 272.5 413.5 317.5C471.098 267.239 473.934 214.258 467.065 188.724M566.213 356.5C559.372 351.406 552.425 345.753 545.5 339.5C543.368 337.575 541.426 335.914 539.666 334.5M566.213 356.5C574.142 299.667 573.92 180.133 583 175C606 162 752.501 51.5 583 143C545.5 78.5 516.5 53 559.074 158L539.666 334.5M539.666 334.5C521.846 320.181 522.726 331.143 535.128 349.5M535.128 349.5L506.5 406C486.445 388.167 455.668 365.8 493 419C498 436.5 480.6 496.9 371 598.5C362.834 593.5 353.201 570.6 380 519C406.5 517.5 444.9 510.6 386.5 495C395.5 461.5 416.101 391.2 426.5 378C439.5 361.5 598.5 246.5 433.5 339.5C436.334 332.667 446.6 316.4 465 306C483.4 295.6 491.334 214.333 493 175C488.167 136.5 464.396 52.3081 456 70.5C450 83.5 448.5 107.833 456 121C428.167 99 385.9 74 439.5 150C452.191 167.995 461.077 180.458 467.065 188.724M467.065 188.724C466.445 186.418 465.746 184.336 465 182.5C468.999 199.5 486.368 215.369 467.065 188.724Z" stroke="#EC8202"/>
<path d="M26.5 712C81.8333 780.333 257.1 883.8 515.5 751C518.5 710.5 485.3 630 328.5 632C283 638.667 181.6 658 140 682C98.4 706 47 712 26.5 712Z" fill="#33455C"/>
<path d="M90 1192.5L400 1161.5L575 1028C736.167 1064.67 1085.7 1159.3 1194.5 1244.5C1303.3 1329.7 1056.83 1336.33 920 1329L456 1207.5C355.167 1212.83 140.8 1217.3 90 1192.5Z" fill="#33455C"/>
<path d="M194 1297.5H385L465 1271L789.5 1388L1150 1403C1202.33 1426.67 1233.8 1476.4 941 1486C873.333 1498.33 734.7 1521.5 721.5 1515.5C708.3 1509.5 545 1415.33 465 1369C379.667 1362.83 206 1339.9 194 1297.5Z" fill="#33455C"/>
<path d="M26.5 712C81.8333 780.333 257.1 883.8 515.5 751C518.5 710.5 485.3 630 328.5 632C283 638.667 181.6 658 140 682C98.4 706 47 712 26.5 712Z" stroke="#33455C"/>
<path d="M90 1192.5L400 1161.5L575 1028C736.167 1064.67 1085.7 1159.3 1194.5 1244.5C1303.3 1329.7 1056.83 1336.33 920 1329L456 1207.5C355.167 1212.83 140.8 1217.3 90 1192.5Z" stroke="#33455C"/>
<path d="M194 1297.5H385L465 1271L789.5 1388L1150 1403C1202.33 1426.67 1233.8 1476.4 941 1486C873.333 1498.33 734.7 1521.5 721.5 1515.5C708.3 1509.5 545 1415.33 465 1369C379.667 1362.83 206 1339.9 194 1297.5Z" stroke="#33455C"/>
<path d="M1048.24 2457.76C1034.36 2458.11 1005.53 2458.12 1001.2 2455.43C1000.22 2454.82 1000.12 2453.47 1000.65 2452.21C1001.93 2449.15 1008.69 2447.35 1019.78 2446.27C1034.36 2444.85 1048.9 2446.97 1059.48 2449.12C1071.73 2451.61 1077.66 2457.02 1087.72 2460.25C1089.73 2460.9 1089.9 2462.75 1089.9 2464.02C1089.91 2465.29 1089.55 2466.35 1088.48 2467.44C1082.61 2473.37 1072.33 2472.47 1062.3 2472.48C1054.01 2472.49 1040.07 2470.68 1022.33 2469.08C996.195 2466.73 994.379 2458.48 992.94 2457.23C992.209 2456.59 992.924 2454.91 996.663 2454.18C1017.68 2454.51 1029.86 2457.39 1043.11 2458.47C1049.97 2458.83 1057.08 2458.83 1064.4 2458.83" stroke="#C7B9A0" stroke-width="20" stroke-linecap="round"/>
<path d="M857.529 2497.62C857.529 2497.27 857.529 2496.91 869.44 2496.37C881.352 2495.83 905.175 2495.12 917.447 2495.47C929.719 2495.81 929.719 2497.23 929.186 2498.5C926.608 2504.62 906.144 2504.09 882.946 2505.88C875.6 2506.44 865.631 2506.24 860.68 2505.35C855.729 2504.46 856.085 2502.69 856.801 2501.59C857.518 2500.5 858.585 2500.14 858.423 2499.96C858.261 2499.78 856.839 2499.78 857.529 2499.78C858.218 2499.78 861.063 2499.78 863.993 2499.78" stroke="#C7B9A0" stroke-width="20" stroke-linecap="round"/>
<path d="M2855 2527.68C2857.82 2530.11 2869.19 2532.97 2877.94 2532.98C2881.07 2532.98 2881.45 2531.37 2881.46 2530.14C2881.46 2528.91 2881.06 2527.7 2880.05 2526.88C2879.03 2526.06 2877.42 2525.65 2873.16 2525.44C2868.91 2525.24 2862.06 2525.24 2856.22 2525.24" stroke="#C7B9A0" stroke-width="20" stroke-linecap="round"/>
<path d="M2911.18 2571.65C2917.23 2567.61 2939.18 2561.07 2958.95 2562.08C2963.3 2562.3 2966.49 2563.49 2968.75 2564.51C2971.02 2565.53 2972.23 2566.74 2971.84 2567.97C2954.87 2571.65 2926.28 2572.06 2919.98 2572.67C2916.91 2572.87 2914.09 2572.87 2911.18 2572.87" stroke="#C7B9A0" stroke-width="20" stroke-linecap="round"/>
<path d="M2984.45 2143.04C2996.31 2109.96 3005.78 2047.93 2978 1979.5C2951.06 1913.13 2951.28 1871.01 2956.56 1851.24C2936.31 1903.85 2911.73 2005.97 2951.5 2061.5C2979.91 2101.17 2986.11 2127.63 2984.45 2143.04Z" fill="#648B22"/>
<path d="M2984.45 2143.04C2996.31 2109.96 3005.78 2047.93 2978 1979.5C2951.06 1913.13 2951.28 1871.01 2956.56 1851.24M2984.45 2143.04C2986.11 2127.63 2979.91 2101.17 2951.5 2061.5C2911.73 2005.97 2936.31 1903.85 2956.56 1851.24M2984.45 2143.04C2983.64 2150.62 2980.91 2155.53 2978 2158C2980.09 2154.05 2982.31 2149.01 2984.45 2143.04ZM2956.56 1851.24C2957.9 1847.77 2959.22 1844.51 2960.5 1841.5C2959.1 1843.7 2957.71 1846.94 2956.56 1851.24Z" stroke="#648B22"/>
<path d="M3958 2128.5C3963 2090.17 3990.2 1997.5 4059 1933.5C4127.8 1869.5 4087.67 1823.17 4059 1808C4101.67 1826.67 4158.4 1895.4 4044 2021C4025.5 2037.83 3982.4 2082.9 3958 2128.5Z" fill="#648B22" stroke="#648B22"/>
<path d="M867.287 89.7129C866.349 89.7129 865.411 89.7129 864.224 89.4783C863.037 89.2438 861.63 88.7747 862.782 88.064C863.933 87.3533 867.685 86.4152 870.557 85.9319C873.428 85.4486 875.304 85.4486 877.237 85.4486" stroke="#22EDEE" stroke-width="20" stroke-linecap="round"/>
<path d="M2895.66 166.47C2891.44 166.47 2887.21 166.47 2897.94 166.001C2908.66 165.532 2934.46 164.593 2970.27 160.358C3006.07 156.122 3051.1 148.617 3081.1 144.75C3124.52 139.155 3142.94 139.946 3151.45 138.525C3155.7 137.814 3159.96 138.041 3186.29 146.015C3212.62 153.99 3260.93 169.938 3292.86 179.092C3338.33 192.129 3369.3 192.055 3359.46 191.352C3333.72 189.512 3265.65 189.241 3217.72 187.109C3169.78 184.977 3143.98 182.162 3108.64 180.243C3073.31 178.324 3029.21 177.386 3002.51 175.965C2975.81 174.543 2967.84 172.667 2965.14 171.466C2962.44 170.265 2965.25 169.796 2994.84 169.554C3024.44 169.313 3080.73 169.313 3111.83 169.078C3142.94 168.844 3147.16 168.374 3157.55 168.133C3184.34 167.509 3199.39 167.891 3195.14 167.657C3189.91 167.368 3184.7 166.47 3182.79 166.704C3182.3 166.764 3186.51 167.408 3190.31 167.65C3194.11 167.891 3198.33 167.891 3189.02 165.077C3179.7 162.262 3156.72 156.634 3157.77 155.845C3158.83 155.056 3184.63 159.277 3229.12 163.563C3273.6 167.849 3335.99 172.07 3370 174.714C3407.82 177.654 3413.04 179.263 3412.36 179.966C3398.48 194.278 3372.86 184.465 3348.94 184.714C3343.9 184.479 3341.56 184.01 3338.47 183.768C3335.39 183.527 3331.64 183.527 3327.77 183.527" stroke="#22EDEE" stroke-width="29" stroke-linecap="round"/>
<path d="M2730.77 300.083C2728.9 300.083 2713.39 300.552 2706.13 300.56C2698.83 300.567 2742.97 298.69 2761.94 297.262C2788.43 294.426 2808.35 291.569 2829.41 289.437C2838.27 288.712 2843.43 288.712 2848.75 288.712" stroke="#22EDEE" stroke-width="29" stroke-linecap="round"/>
<path d="M1221.22 105.349C1211.77 98.7247 1203.25 93.0675 1192.37 87.1259C1173.15 76.638 1142.19 70.7796 1129.12 66.9844C1124.72 65.7059 1117.6 65.0939 1080.2 64.6106C1042.8 64.1273 975.258 64.1273 936.944 64.5964C891.575 65.1518 881.999 66.9702 869.767 68.8464C822.373 76.1167 815.206 79.2797 808.092 82.5916C802.69 85.1061 797.182 86.8559 793.871 89.6916C792.332 91.0088 791.497 92.5273 791.483 94.1904C791.468 95.8535 792.407 97.7297 796.173 99.1654C806.081 102.942 814.68 102.506 829.008 104.851C841.968 106.972 866.32 111.887 887.564 114.304C925.99 118.675 947.796 117.189 956.297 117.9C961.034 118.296 966.673 118.141 980.361 119.314C994.049 120.487 1015.63 122.832 1054.18 124.04C1092.74 125.248 1147.62 125.248 1177.3 124.779C1209.82 124.265 1214.57 121.467 1217.65 119.108C1219.12 117.976 1219.32 115.81 1219.09 113.906C1218.86 112.001 1217.92 110.125 1216.03 108.689C1214.14 107.253 1211.33 106.315 1194.87 102.079C1178.41 97.8435 1148.39 90.3383 1130.11 85.2994C1111.83 80.2605 1106.2 77.9151 1101.66 76.4724C1097.12 75.0296 1093.83 74.5606 1057.67 74.788C1021.5 75.0154 952.544 75.9535 910.221 77.6095C867.898 79.2655 854.295 81.6108 846.584 83.0536C834.127 85.3842 827.516 86.3868 814.964 88.0427C813.567 88.2271 817.935 91.5608 830.188 95.1143C842.441 98.6679 863.08 103.359 900.449 105.54C937.818 107.722 991.292 107.253 1027.52 105.839C1063.74 104.425 1081.1 102.079 1101.06 100.871C1121.03 99.6629 1143.07 99.6629 1161.7 100.836C1180.33 102.008 1194.87 104.354 1188.05 105.562C1181.24 106.77 1152.62 106.77 1133.19 107.474C1104.32 108.519 1089.09 111.034 1074.69 110.096C1065.9 109.523 1054.2 107.282 1046.52 105.846C1038.84 104.41 1035.56 103.472 1055.68 102.989C1075.8 102.506 1119.42 102.506 1125.01 99.6913C1130.59 96.8769 1096.82 91.2481 1068.63 88.3484C1040.44 85.4486 1018.87 85.4486 1023.93 86.6213C1029 87.794 1061.37 90.1393 1047.32 91.5821C1033.27 93.0248 971.818 93.4939 941.571 93.2665C911.323 93.039 914.137 92.1009 934.584 92.3212C955.031 92.5415 993.026 93.9488 979.53 93.7355C966.033 93.5223 899.894 91.6461 885.993 91.8522C872.091 92.0583 912.431 94.4036 934.62 95.8464C956.808 97.2891 959.623 97.7582 997.425 99.407C1035.23 101.056 1107.93 103.87 1146.33 105.789C1186.65 107.804 1191.34 110.082 1196.31 111.262C1198.52 111.786 1199.87 112.911 1161.43 107.296C1122.99 101.681 1044.65 89.4855 993.275 83.2028C941.897 76.9201 919.851 76.9201 907.087 77.3892C891.455 77.9636 887.201 79.763 878.971 81.1702C872.104 82.3443 859.952 85.3918 902.453 86.8416C944.954 88.2915 1042.52 88.2915 1094.42 88.526C1146.33 88.7606 1149.61 89.2296 1154.58 90.4094C1175.49 95.3674 1183.75 99.1796 1201.96 105.796C1211.1 109.119 1216.93 109.613 1222.62 111.262C1224.15 111.706 1225.46 112.911 1225.48 113.628C1225.62 118.378 1216.97 117.189 1215.78 118.134C1213.98 119.558 1224.49 119.563 1231.83 118.859C1234.56 118.598 1234.95 116.748 1235.19 115.32C1235.44 113.891 1235.44 112.484 1234.97 111.056C1234.5 109.627 1233.56 108.22 1232.14 107.26C1229.16 105.25 1224.56 105.349 1222.42 106.287C1218.64 107.938 1231.61 112.441 1236.59 115.277C1238.51 116.374 1238.28 118.113 1237.57 119.307C1233.1 126.901 1216.05 124.282 1209.64 125.483C1206.09 126.148 1199.47 126.67 1177.36 125.966C1159.93 125.263 1129.91 123.855 1104.36 121.489C1078.81 119.122 1058.64 115.839 1035.01 112.456" stroke="#22EDEE" stroke-width="20" stroke-linecap="round"/>
<path d="M1306.51 71.2344C1307.44 71.2344 1308.38 71.2344 1322.47 71.2344C1336.56 71.2344 1363.76 71.2344 1405.45 71.938C1447.14 72.6416 1502.49 74.0488 1537.34 73.132C1572.18 72.2152 1584.85 68.9317 1593.02 67.0057C1612.47 62.4172 1629.57 56.1105 1652.76 48.051C1672.71 41.1222 1682.17 40.9013 1701.73 45.8407C1715.35 49.2792 1735.83 56.878 1753.03 61.9099C1770.23 66.9417 1783.37 69.7561 1821.32 72.3787C1859.28 75.0012 1921.67 77.3465 1958.5 79.7274C1995.33 82.1083 2004.71 84.4536 2012.59 87.0691C2034.96 94.4917 2042.75 101.994 2049.19 109.35C2050.38 110.72 2049.91 112.427 2049.21 113.856C2047.64 117.027 2038.14 120.487 2023.25 124.744C2015.92 126.841 2008.83 128.063 1960.41 128.553C1911.99 129.044 1822.4 128.575 1760.76 125.284C1699.13 121.993 1668.17 115.896 1644.72 112.754C1621.27 109.613 1606.26 109.613 1594.3 109.144C1582.35 108.675 1573.9 107.737 1543.29 103.501C1512.67 99.2649 1460.13 91.7597 1430.96 87.8935C1390.52 82.5346 1378.12 82.6058 1360.6 78.5974C1334.09 72.5326 1313.67 74.5605 1302.76 71.7177C1295.45 69.8123 1289.46 70.7653 1286.39 70.0546C1284.76 69.6756 1282.85 69.813 1336.53 70.7511C1390.21 71.6893 1499.51 73.5655 1558.15 73.8285C1616.8 74.0915 1621.49 72.6843 1626.02 71.7248C1646.06 67.4772 1665.13 62.251 1674.62 60.1047C1679.23 59.0605 1695.36 62.6774 1729.58 70.6943C1750.27 75.5438 1777.4 83.4018 1817.21 88.9098C1857.02 94.4178 1908.62 97.7013 1941.53 100.565C1974.45 103.43 1987.11 105.775 1997.15 108.156C2007.2 110.537 2014.23 112.882 1965.56 111.276C1916.88 109.67 1812.28 104.041 1747.84 99.2649C1683.4 94.4889 1662.29 90.7363 1635.23 88.8032C1608.17 86.8701 1575.81 86.8701 1581.65 86.1665C1587.49 85.4628 1632.52 84.0556 1664.63 81.9235C1696.74 79.7914 1714.57 76.977 1725.63 75.5271C1736.69 74.0773 1740.44 74.0773 1745.42 75.2499C1750.4 76.4226 1756.5 78.7679 1739.47 78.8035C1722.44 78.839 1682.1 76.4937 1657.33 76.4581C1632.57 76.4226 1624.59 78.7679 1603.36 79.9762C1582.13 81.1844 1547.89 81.1844 1531.19 81.1844C1514.49 81.1844 1516.37 81.1844 1575.26 82.5916C1634.16 83.9988 1750.02 86.8132 1818.62 89.6703C1887.21 92.5273 1905.04 95.3417 1927.12 97.0261C1949.2 98.7105 1975 99.1796 1991.58 100.594C2008.15 102.008 2014.72 104.354 2019.51 105.796C2024.3 107.239 2027.11 107.708 2030.01 108.191" stroke="#22EDEE" stroke-width="29" stroke-linecap="round"/>
<path d="M1054.92 230.434C1061.51 230.903 1076.17 234.2 1112.39 241.038C1141.41 246.515 1192.71 252.096 1274.16 255.01C1355.62 257.924 1465.85 256.986 1546.32 261.193C1626.8 265.401 1674.17 274.782 1703.5 281.491C1743.04 290.534 1756.12 297.695 1761.33 301.242C1763.43 302.676 1763.72 304.319 1762.79 305.748C1760.43 309.378 1745.84 311.441 1718.23 313.573C1701.91 314.833 1680.77 314.298 1662.15 315.705C1643.54 317.112 1628.06 319.926 1604.37 321.611C1580.69 323.295 1549.26 323.764 1520.64 320.722C1492.02 317.681 1467.16 311.114 1448.96 305.385C1430.75 299.657 1419.97 294.966 1409.25 290.908C1388.41 283.018 1372.42 279.245 1351.94 277.824C1336.64 276.763 1311.28 277.341 1295.19 276.872C1279.09 276.403 1272.99 275.464 1255.78 271.463C1238.56 267.462 1210.42 260.426 1193.81 256.567C1164.63 249.786 1151.15 247.036 1140.95 245.835C1138.8 245.581 1137.39 245.131 1180.75 248.173C1224.12 251.215 1312.31 257.782 1362.66 262.103C1413.01 266.424 1422.87 268.3 1458.43 271.378C1493.99 274.455 1554.97 278.677 1592.72 282.259C1630.46 285.841 1643.13 288.655 1656.92 292.45C1685.44 300.297 1702.59 305.769 1704.03 306.004C1704.95 306.153 1698.91 306.707 1654.51 305.776C1610.12 304.845 1525.69 302.5 1481.02 300.588C1436.35 298.676 1434.01 297.269 1432.57 295.84C1431.12 294.412 1430.65 293.005 1433.23 291.811C1440.91 288.243 1458.96 288.712 1485.17 290.354C1516.86 292.339 1539.1 299.131 1546.21 299.842C1548.17 300.038 1546.76 300.083 1525.63 296.565C1504.5 293.047 1463.69 286.011 1441.96 282.387C1420.24 278.762 1418.83 278.762 1417.38 277.341" stroke="#22EDEE" stroke-width="29" stroke-linecap="round"/>
<path d="M700.98 203.427C704.733 203.427 713.702 202.489 741.249 199.894C761.737 197.965 795.533 195.893 817.388 193.747C848.268 190.714 868.126 187.791 887.755 188.26C903.223 188.63 912.744 191.572 919.119 193.463C944.65 201.034 969.615 220.953 972.216 222.836C973.715 223.922 974.348 226.596 973.894 228.977C973.439 231.358 971.562 233.703 959.104 234.911C946.645 236.119 923.66 236.119 894.934 236.823C866.207 237.527 832.434 238.934 812.69 239.19C788.248 239.506 778.732 235.665 764.355 230.711C724.151 216.859 718.066 213.874 712.16 209.852C709.253 207.872 705.785 207.236 714.882 206.753C723.979 206.27 745.556 206.27 758.783 206.035C772.009 205.8 776.231 205.331 800.921 205.559C825.611 205.786 870.641 206.724 894.308 208.146C919.088 209.634 921.756 214.315 927.413 216.205C931.111 217.441 936.823 218.096 912.282 218.579C887.741 219.062 832.86 219.062 803.65 218.828C774.44 218.593 772.563 218.124 770.63 217.641" stroke="#22EDEE" stroke-width="29" stroke-linecap="round"/>
<path d="M294.455 25.7489C295.393 25.7489 296.331 25.7489 367.175 25.5144C438.019 25.2798 578.74 24.8108 657.799 25.9763C736.859 27.1419 749.993 29.9563 756.758 32.3443C763.524 34.7323 763.524 36.6086 763.055 38.2788C760.827 46.2133 742.303 51.7752 700.875 57.4537C669.501 61.7543 616.294 61.256 583.828 61.5119C551.363 61.7678 541.043 60.8296 533.382 59.8773C520.981 58.3358 500.718 56.0821 473.512 53.957C454.165 52.4459 439.042 49.444 423.918 48.0297C394.379 45.2673 374.595 43.2893 358.504 41.8678C326.854 39.0719 315.862 33.8226 306.089 32.387C302.741 31.8951 298.748 30.0132 296.594 28.8405C291.309 25.9625 310.986 21.9679 365.242 22.6573C414.361 23.2814 507.214 28.5065 563.267 31.6194C619.321 34.7323 635.739 36.6086 652.874 37.8097C687.321 40.2242 708.061 40.9013 710.449 42.7918C710.022 43.7441 706.27 44.6823 665.638 45.1655C625.007 45.6488 547.61 45.6488 467.869 45.6488" stroke="#22EDEE" stroke-width="29" stroke-linecap="round"/>
<path d="M2389.63 58.4416C2386.82 58.4416 2384 58.4416 2353.94 57.9726C2323.88 57.5035 2266.65 56.5654 2232.48 56.7857C2188.9 57.0667 2175.04 59.8631 2166.77 60.3321C2151.11 61.2199 2131.53 64.1273 2120.77 65.7762C2118.98 66.0501 2117.23 67.425 2116.03 68.6119C2114.83 69.7988 2114.36 71.206 2114.82 72.4C2115.84 75.0444 2120.95 76.9059 2127.33 79.7416C2134.9 83.108 2148.84 85.9035 2193.08 89.2154C2227.86 91.8199 2287.97 91.5892 2326.17 90.4307C2364.37 89.2723 2378.91 85.9888 2387.11 83.8282C2395.3 81.6677 2396.71 80.7295 2397.9 79.5426C2400.28 77.1754 2401 72.6843 2400.53 67.4819C2400.31 65.0581 2399.13 63.2176 2397.94 62.0165C2391.93 55.9409 2363.28 65.4919 2341.12 71.2202C2328.64 74.448 2315.76 74.5463 2288.25 75.2571C2264.97 75.4987 2222.76 75.4987 2200.07 75.2642C2177.38 75.0296 2175.51 74.5606 2173.57 74.0773" stroke="#22EDEE" stroke-width="29" stroke-linecap="round"/>
<path d="M1930.51 298.662C1929.57 300.538 1922.05 301.505 1912.57 302.443C1909.95 302.701 1912.46 305.257 1916.48 306.928C1925.84 310.812 1935.22 311.924 1959.42 313.338C1980.33 314.56 2018.81 315.691 2040.74 316.885C2066.93 318.311 2083.9 319.983 2104.02 319.514C2117.01 319.211 2125.19 314.781 2148.05 311.703C2164.14 309.539 2194.75 310.517 2213.74 309.571C2232.73 308.626 2239.3 307.219 2267.54 305.321C2295.79 303.424 2345.51 301.078 2376.99 298.697C2408.46 296.317 2420.19 293.971 2429.28 291.356C2438.37 288.74 2444.47 285.926 2448.55 284.242C2452.63 282.557 2454.5 282.088 2432.96 286.068C2411.41 290.048 2366.38 298.491 2339.9 302.841C2313.41 307.19 2306.85 307.19 2299.71 307.66C2292.58 308.129 2285.07 309.067 2254.47 309.316C2223.86 309.564 2170.39 309.095 2141.44 307.915C2104.44 306.408 2091.7 297.269 2081.45 295.585C2075.14 294.548 2068.89 294.398 2055.95 292.756C2045.32 291.407 2026.6 287.831 2006.85 285.905C1967.05 282.023 1942.86 283.495 1936.01 284.91C1928.48 286.464 1923.42 290.588 1921.29 294.135C1920.35 295.695 1920.56 297.212 1923.61 298.641C1932.28 302.704 1952.17 303.395 1972.78 303.637C1988.1 303.817 2000.13 297.724 2006.29 297.475C2008.19 297.71 2010.54 298.179 2012.68 298.42C2014.83 298.662 2016.71 298.662 2018.64 298.662" stroke="#22EDEE" stroke-width="29" stroke-linecap="round"/>
<path d="M2314.3 250.334C2312.42 250.334 2293.16 249.865 2260.52 247.981C2221.73 245.743 2207.29 237.541 2195.64 235.181C2189.28 233.893 2182.62 231.4 2174.08 229.019C2170.76 228.092 2167.9 226.653 2165.3 224.528C2164 223.463 2163.17 221.934 2163.16 220.505C2163.14 219.077 2164.08 217.669 2167.38 216.241C2170.68 214.812 2176.3 213.405 2191.87 211.742C2207.43 210.079 2232.76 208.203 2274.19 201.842C2315.62 195.481 2372.38 184.692 2441.25 179.369C2510.13 174.046 2589.4 174.515 2632.58 174.522C2675.76 174.529 2680.45 174.06 2685.22 173.115C2689.98 172.17 2694.67 170.762 2713.5 169.099C2732.34 167.436 2765.17 165.56 2794.28 164.593C2823.39 163.627 2847.78 163.627 2863.63 162.923C2879.48 162.22 2886.05 160.812 2908.9 154.224C2931.75 147.636 2970.68 135.909 3019.35 129.634C3068.02 123.358 3125.25 122.889 3156.13 123.116C3187.02 123.344 3189.84 124.282 3198.79 128.049C3222.85 138.168 3241.97 146.086 3254.7 149.619C3263.69 152.117 3277.74 156.434 3310.78 161.424C3343.83 166.413 3395.43 172.042 3424.12 175.879C3465.2 181.374 3474.15 187.777 3477.47 191.316C3478.98 192.914 3476.11 196.263 3467.87 198.885C3459.64 201.508 3445.09 203.853 3372.64 205.53C3300.18 207.208 3170.25 208.146 3084.55 204.407C2998.85 200.669 2961.33 192.226 2899.55 189.049C2837.76 185.872 2752.86 188.217 2689.19 193.882C2625.52 199.546 2585.65 208.458 2537.9 214.457C2490.15 220.455 2435.74 223.27 2406.3 224.954C2374.03 226.801 2364.12 231.343 2345.01 237.029C2333.3 240.515 2316.06 238.962 2296.1 236.617C2276.15 234.272 2253.63 229.581 2253.99 226.461C2256.84 201.922 2309.02 219.077 2321.31 216.71C2333.46 214.37 2346.92 213.391 2361.1 211.259C2368.2 210.191 2375.28 210.534 2392.74 207.25C2410.2 203.967 2437.87 197.4 2454.01 193.782C2473.82 189.34 2480.11 189.212 2482.49 189.212C2492.65 189.212 2458.37 199.134 2452.42 202.943C2439.13 211.442 2484.84 188.758 2487.47 184.955C2488.27 183.798 2485.83 190.136 2481.35 195.097C2478.87 197.837 2475.46 200.527 2452.19 206.198C2428.92 211.87 2385.77 220.313 2356.03 224.897C2326.29 229.481 2311.28 229.95 2298.39 229.254C2259.65 227.161 2243.77 223.81 2228.12 222.858C2220.9 222.418 2242.5 230.334 2285.56 245.025C2313.31 254.49 2330.83 247.974 2348.96 242.8C2383.21 233.032 2408.54 222.388 2416.35 220.732C2419.47 220.015 2420.87 219.546 2422.54 218.835C2424.2 218.124 2426.08 217.186 2430.85 214.798" stroke="#22EDEE" stroke-width="29" stroke-linecap="round"/>
<path d="M2659.7 307.191C2652.65 307.191 2636.53 306.252 2628.93 303.651C2627.17 303.05 2626.55 300.595 2627.71 298.925C2630.79 294.485 2643.98 291.583 2658.18 286.381C2667.17 283.088 2677.16 276.9 2699.32 270.518C2713.71 266.372 2735.55 264.605 2750.18 263.155C2771.79 261.014 2784.26 262.643 2796.53 265.706C2803.74 267.504 2812.56 271.115 2823.02 274.214C2833.47 277.312 2845.2 280.127 2892.52 280.638C2939.84 281.15 3022.39 279.274 3066.56 278.073C3114.03 276.782 3122.56 274.043 3128.74 270.966C3130.14 270.264 3126.47 269.295 3085.14 273.041C3043.81 276.786 2964.54 284.76 2921.12 289.807C2877.71 294.853 2872.55 296.729 2868.48 298.399C2864.41 300.069 2861.6 301.476 2847.02 305.485C2832.43 309.493 2806.17 316.06 2790.76 319.678C2775.35 323.295 2771.6 323.764 2757.94 324.006C2720.83 324.662 2694.31 323.779 2689.59 322.599C2676.02 319.212 2659.28 313.359 2652.38 310.048C2650.65 309.218 2648.84 308.157 2646.94 307.205C2645.03 306.252 2643.16 305.314 2645.47 303.893C2647.79 302.471 2654.36 300.595 2672.05 297.283C2689.74 293.971 2718.35 289.281 2742.71 286.395C2767.06 283.51 2786.29 282.571 2797.61 282.557C2811.77 282.539 2816.04 285.386 2818.65 287.511C2819.95 288.576 2820.78 290.105 2820.09 291.534C2818.28 295.274 2808.54 297.226 2782.18 299.828C2761.92 301.022 2727.67 301.96 2722.23 302.443C2716.79 302.926 2741.18 302.926 2766.31 302.926" stroke="#22EDEE" stroke-width="29" stroke-linecap="round"/>
<path d="M3103.19 271.655C3114.97 270.717 3141.42 268.812 3160.46 267.632C3163.81 267.425 3166.15 267.391 3163.84 269.267C3155.38 276.146 3140.68 279.7 3120.88 281.122C3107.67 282.07 3087.95 281.605 3080.61 282.778C3076.75 283.395 3098.31 289.181 3120.56 289.423C3145.51 289.694 3169 280.212 3176.37 273.339C3177.87 271.936 3178.04 270.262 3176.87 268.833C3169.78 260.14 3155.35 263.126 3140.91 264.775C3134.51 266.424 3122.7 268.329 3107.56 269.75C3101.32 270.234 3098.04 270.234 3094.66 270.234" stroke="#22EDEE" stroke-width="29" stroke-linecap="round"/>
<path d="M3627.69 76.9202C3627.22 76.9202 3626.75 76.9202 3602.82 82.7835C3578.89 88.6469 3531.52 100.374 3461.61 107.353C3391.7 114.332 3300.71 116.208 3251.72 117.644C3202.73 119.08 3198.5 120.018 3191.4 120.501C3184.3 120.984 3174.45 120.984 3167.27 121.219C3160.08 121.453 3155.86 121.922 3148.67 122.406" stroke="#22EDEE" stroke-width="29" stroke-linecap="round"/>
<path d="M1148.79 309.878C1151.72 309.878 1159.53 308.907 1170.83 308.164C1185.07 307.226 1198.81 307.906 1209.34 310.114C1216.02 311.513 1221.39 313.794 1233.08 316.723C1259.91 323.449 1281.24 325.085 1286.39 326.064C1305.86 329.768 1337.68 328.029 1339.17 329.25C1345.93 334.804 1323.99 330.016 1315.9 328.529C1309.73 327.395 1299.5 326.071 1283.85 325.342C1264.21 324.428 1239.7 318.74 1212.78 313.838C1166.25 305.368 1146.36 314.295 1143.65 314.537C1143.37 314.78 1145.31 315.266 1148.74 315.516C1152.17 315.767 1157.03 315.767 1162.04 315.767" stroke="#18B6C9" stroke-width="12" stroke-linecap="round"/>
<path d="M1428.48 368.76C1436.25 368.76 1456.28 372.646 1482.76 378.777C1504.65 383.847 1525.97 384.437 1551.22 388.117C1561.37 389.598 1566.26 389.369 1596.45 390.34C1626.64 391.312 1682.02 393.255 1717.59 392.556C1767.41 391.576 1784.2 383.981 1789.09 382.509C1797.62 379.943 1812.56 380.536 1832.48 382.487C1843.69 383.585 1860.65 387.396 1885.6 391.054C1899.48 393.09 1915.4 398.113 1929.49 401.336C1943.57 404.56 1955.23 406.503 1982.61 407.018C2009.99 407.534 2052.74 406.562 2076.46 405.819C2118.5 404.501 2144.83 394.771 2147.56 393.792C2167.14 386.772 2105.2 395.728 2088.76 397.215C2075.33 398.429 2058.11 399.673 2042.18 399.916C2035.48 400.018 2031.6 400.645 2014.78 400.895C1997.96 401.145 1968.33 401.145 1952.34 400.902C1929.99 398.701 1921.62 396.729 1918.69 396.486C1917.21 396.243 1915.75 395.757 1914.25 395.257" stroke="#18B6C9" stroke-width="12" stroke-linecap="round"/>
<path d="M1384.32 208.308C1384.8 208.308 1385.29 208.308 1404.73 208.794C1424.16 209.279 1462.54 210.251 1497.37 214.395C1532.2 218.538 1562.32 225.825 1578.8 229.579C1595.29 233.332 1597.23 233.332 1602.18 234.804" stroke="#18B6C9" stroke-width="12" stroke-linecap="round"/>
<path d="M4128.2 195.059C4128.2 196.031 4125.77 197.017 4063.31 205.768C4003.3 214.177 3885.72 230.064 3819.82 238.323C3753.92 246.581 3743.23 246.581 3735.78 246.824C3724.43 247.194 3717.04 248.053 3687.85 251.696C3661.99 254.922 3613.96 262.626 3587.72 266.865C3553.8 272.348 3545.33 278.936 3540.12 284.096C3536.21 287.968 3554.03 292.199 3569.93 294.407C3588.1 296.931 3610.89 293.701 3641.2 288.821C3658.98 285.959 3681.23 280.055 3701.73 276.816C3722.22 273.578 3740.2 272.606 3753.59 271.377C3766.97 270.148 3775.23 268.691 3823.21 265.754C3871.18 262.817 3958.62 258.445 3994.92 256.679C4031.22 254.912 4013.73 255.884 3977.76 261.242C3941.79 266.6 3887.87 276.316 3828.28 281.807C3768.68 287.297 3705.05 288.269 3667.41 289.741C3629.77 291.213 3620.05 293.156 3607.27 294.157C3579.02 296.37 3558.56 294.672 3547.32 293.936C3540.47 293.487 3531.23 293.686 3528.66 292.229C3526.09 290.771 3530.46 287.857 3533.69 286.355C3538.56 284.084 3542.31 284.368 3542.82 283.632C3548.67 275.148 3525.18 286.812 3519.8 288.276C3516.8 289.093 3513.45 290.712 3453.89 300.936C3394.33 311.159 3278.71 330.104 3215.75 340.835C3152.8 351.567 3145.99 353.51 3141.52 354.511C3137.04 355.512 3135.1 355.512 3124.14 357.212C3113.18 358.912 3093.27 362.313 3061.63 364.55C3030 366.788 2987.25 367.759 2967.9 368.26C2948.55 368.76 2953.89 368.76 2964.66 367.546C2991.54 364.515 3012.83 359.943 3025.29 357.734C3058.03 351.934 3070.76 352.568 3072.25 352.568C3092.89 352.568 3025.2 360.414 3019.78 361.392C3016.37 362.009 3044.11 362.386 3073.52 360.921C3093.33 359.934 3113.34 356.498 3144.38 353.819C3162.85 352.225 3186.59 347.739 3210.27 345.494C3233.95 343.25 3256.78 342.764 3280.69 341.299C3304.59 339.834 3328.88 337.406 3342.61 335.669C3363.37 333.041 3375.41 329.044 3409.3 320.013C3434.76 313.228 3477.67 304.667 3502.37 299.913C3527.06 295.158 3532.41 295.158 3533.7 295.158C3535 295.158 3532.08 295.158 3495.6 301.959C3459.13 308.76 3389.18 322.361 3350.71 329.368C3312.25 336.375 3307.39 336.375 3323.83 332.732C3340.27 329.089 3378.16 321.802 3401.08 318.048C3424 314.295 3430.8 314.295 3442.32 313.566C3469.9 311.821 3492.22 308.421 3504.69 305.727C3518.48 302.75 3528.08 302.032 3540.01 301.296C3549.98 300.681 3567.97 301.046 3597.87 299.589C3627.78 298.132 3669.07 295.217 3692.77 293.23C3716.47 291.242 3721.33 290.271 3748.12 286.856C3774.91 283.441 3823.49 277.611 3849.24 274.608C3874.99 271.605 3876.45 271.605 3872.1 271.605C3867.75 271.605 3857.55 271.605 3838.94 273.791C3820.32 275.977 3793.6 280.349 3774.25 282.602C3730.07 287.744 3721.94 281.91 3719.23 281.91C3719.03 281.91 3722.83 281.91 3736.24 279.967C3749.65 278.024 3772.97 274.137 3793.72 272.135C3814.48 270.133 3831.97 270.133 3849.98 270.133" stroke="#18B6C9" stroke-width="12" stroke-linecap="round"/>
<path d="M1600.97 289.39C1588.71 290.427 1555.64 287.347 1545.02 286.039C1534.94 284.798 1511.37 279.638 1500.61 271.874C1498.92 270.655 1500.35 267.254 1502.9 265.171C1505.46 263.089 1510.57 261.557 1531.33 261.023C1552.1 260.489 1588.37 261 1610.12 262.029C1638.08 263.353 1654.02 271.278 1669.24 280.296C1675.05 283.74 1675.77 286.758 1676.3 289.351C1676.82 291.944 1676.82 294.498 1676.06 296.581C1675.29 298.663 1673.76 300.195 1670.41 301.24C1644.44 299.746 1612.39 292.486 1603.07 291.201C1600.49 290.938 1596.91 290.938 1593.23 290.938" stroke="#92FFFC" stroke-width="49" stroke-linecap="round"/>
<path d="M1313.04 258.43C1316.62 260.489 1326.94 262.548 1337.79 262.819C1342.38 262.933 1316.77 261.526 1310.46 261.781C1305.02 262.002 1338.89 262.548 1338.73 262.811C1338.57 263.074 1314.56 263.074 1314.45 263.074C1290.04 263.074 1363.61 265.117 1359.01 268.213C1331.66 286.596 1296.55 262.052 1293.19 259.738C1291.94 258.874 1293.41 256.913 1296.75 255.868C1321.56 248.095 1347.08 257.904 1349.15 260.218C1358.07 270.213 1299.76 265.164 1279.38 260.272C1272.11 258.528 1271.77 255.891 1273.04 254.072C1274.31 252.253 1277.37 250.721 1286.36 249.931C1295.35 249.142 1310.16 249.142 1325.42 249.142" stroke="#92FFFC" stroke-width="49" stroke-linecap="round"/>
<path d="M1035.95 88.1492C1018.55 93.2886 983.376 97.4373 974.057 98.7221C966.336 99.7866 961.658 101.044 958.57 101.563C957.035 101.82 955.481 101.06 954.437 100.03C953.392 99.0008 952.881 97.4682 955.172 94.8908C973.722 74.0216 1005.98 68.0561 1016.29 61.8563C1022.6 58.066 1028.7 56.6783 1033.08 55.9043C1037.89 55.0518 1055.41 61.2604 1080.15 71.5623C1103.29 81.1952 1104.57 91.2298 1105.85 94.318C1106.52 95.9224 1107.65 97.4063 1104.09 97.9404C1076 102.153 1049.97 92.7933 1028.03 95.3629C1013.27 95.3784 1005.02 94.3413 999.352 94.0858C996.751 93.8304 994.708 93.3196 991.055 92.7933" stroke="#92FFFC" stroke-width="49" stroke-linecap="round"/>
<path d="M864.118 89.6973C857.973 86.1059 845.573 81.9572 829.876 79.3876C824.991 78.5877 819.845 78.8612 817.469 79.8829C815.093 80.9046 815.604 82.948 817.655 85.2777C831.741 101.278 863.004 102.081 880.055 99.2562C883.733 98.6468 886.255 97.9636 888.081 96.9342C889.908 95.9048 890.93 94.3723 890.945 92.5611C890.961 90.7499 889.939 88.7066 887.88 86.8876C885.821 85.0687 882.756 83.5362 880.156 82.4913C877.555 81.4464 875.512 80.9356 871.858 80.4092" stroke="#92FFFC" stroke-width="49" stroke-linecap="round"/>
<path d="M882.694 208.894C857.57 201.185 823.375 194.962 820.023 196.239C818.315 196.89 818.205 200.07 819.985 202.152C824.463 207.39 836.192 208.367 861.317 209.915C880.282 211.084 911.983 210.442 926.255 209.165C940.528 207.888 936.441 205.333 921.565 203.762C906.689 202.191 881.146 201.68 854.83 201.154" stroke="#92FFFC" stroke-width="49" stroke-linecap="round"/>
<path d="M1608.71 71.1212C1624.03 74.1862 1644.19 77.2977 1693.16 81.4077C1729.83 84.4854 1790.66 87.561 1823.51 89.914C1867.35 93.0539 1880.6 96.911 1896.32 103.862C1899.65 105.335 1901.25 105.177 1898.46 105.944C1895.68 106.71 1888.53 108.242 1862.62 108.776C1836.71 109.31 1792.27 108.8 1765.55 108.026C1731.12 107.029 1712.53 104.666 1694.75 103.637C1670.84 102.253 1645.4 89.7282 1629.41 82.499C1621.99 79.1391 1615.95 77.8395 1612.86 74.5036C1611.8 72.1893 1611.8 68.6134 1610.02 66.7713C1608.23 64.9291 1604.65 64.9291 1599.42 68.0252" stroke="#92FFFC" stroke-width="49" stroke-linecap="round"/>
<path d="M1444.62 78.8613C1444.11 78.8613 1443.6 78.8613 1444.36 78.3504C1445.12 77.8396 1447.16 76.8179 1448.98 76.2916C1450.8 75.7653 1452.33 75.7653 1453.91 75.7653" stroke="#92FFFC" stroke-width="49" stroke-linecap="round"/>
<path d="M1944.63 140.782C1947.18 142.33 1956.45 143.351 1977.31 143.622C1988.31 143.765 2001.31 135.642 2016.82 135.867C2019.74 135.909 2019.95 139.698 2020.22 141.78C2020.67 145.376 2018.44 149.528 2014.32 153.909C2004.78 164.06 1980.29 154.745 1972.26 151.114C1968.04 149.209 1963.23 146.974 1961.91 146.974C1963.65 146.974 1970.29 146.974 1978.31 145.952C1986.33 144.93 1995.53 142.887 2008.1 140.782" stroke="#92FFFC" stroke-width="49" stroke-linecap="round"/>
<path d="M2319.24 35.5171C2314.62 32.9474 2300.27 28.8297 2251.06 17.2429C2235.89 13.6706 2226.41 12.8233 2204.12 11.5307C2186.45 10.5063 2155.78 11.7707 2138.71 12.8001C2112.92 14.3558 2105.12 21.5695 2101.52 24.6578C2099.84 26.0923 2098.93 27.7461 2099.68 29.5573C2104.32 40.7431 2131.78 43.737 2172.37 49.155C2197.48 52.5066 2232.37 50.9971 2251.54 50.4863C2278.62 49.7648 2286.71 46.3531 2292.91 43.528C2294.46 42.7463 2295.99 42.2354 2299.08 41.9723C2302.17 41.7091 2306.77 41.7091 2308.41 41.7091" stroke="#92FFFC" stroke-width="49" stroke-linecap="round"/>
<path d="M2248.04 187.222C2238.27 186.2 2211.6 184.126 2193.89 185.921C2188.47 186.472 2184.07 190.813 2180.98 194.931C2179.58 196.79 2179.92 199.048 2180.95 200.867C2187.32 212.217 2217.97 210.953 2256.49 211.471C2281.72 211.811 2318.5 210.968 2340.51 210.194C2382.67 208.712 2401.75 193.94 2409.26 189.048C2411.13 187.831 2413.12 186.726 2414.42 185.434C2415.73 184.141 2416.24 182.609 2415.23 181.308C2414.21 180.008 2411.66 178.986 2388.12 178.46C2364.59 177.934 2320.14 177.934 2293.93 178.7C2252.7 183.599 2247.03 187.206 2241.37 189.528C2238.27 190.318 2234.69 190.318 2231.01 188.77" stroke="#92FFFC" stroke-width="49" stroke-linecap="round"/>
<path d="M2717.08 181.03C2714.02 181.03 2697.62 181.54 2675.43 181.293C2668.02 181.21 2668.57 178.491 2670.36 176.417C2674.53 171.6 2683.49 168.661 2708.85 166.339C2729.04 164.491 2764.36 165.55 2782.77 166.827C2801.19 168.104 2801.7 170.658 2801.96 173.506C2802.5 179.4 2800.69 185.643 2797.86 191.053C2793.75 198.887 2782.16 202.175 2766.95 205.271C2741.87 204.776 2735.69 201.68 2727.98 198.089C2723.34 195.519 2717.21 191.432 2709.34 185.674" stroke="#92FFFC" stroke-width="49" stroke-linecap="round"/>
<path d="M2717.08 269.266C2722.19 269.266 2729.93 269.266 2740.99 269.777C2753.58 271.309 2763.49 272.873 2769.41 273.902C2772.27 274.421 2774.82 274.932 2779 275.458" stroke="#92FFFC" stroke-width="49" stroke-linecap="round"/>
<path d="M3193.87 173.29C3173.79 173.801 3148.11 174.838 3135.83 170.743C3132.82 169.739 3135.04 162.051 3137.34 158.39C3141.93 151.079 3156.13 150.085 3186.89 147.508C3210.43 145.534 3250.34 145.952 3278.53 146.71C3322.12 147.883 3341.92 152.639 3351.43 154.443C3374.2 158.759 3393.96 160.379 3422.36 166.556C3427.7 167.718 3429.13 169.141 3430.69 169.667C3432.25 170.194 3433.78 170.194 3409.79 170.449C3385.81 170.705 3336.25 171.215 3308.17 172.245C3274.91 173.464 3260.01 176.386 3243.01 175.875C3231.11 174.342 3221.78 173.29 3214.05 173.034C3210.91 172.779 3209.38 172.268 3206.25 171.742" stroke="#92FFFC" stroke-width="49" stroke-linecap="round"/>
<path d="M3034.42 150.069C3025.68 150.58 3006.19 151.617 2986.49 148.792C2977.82 147.548 2969.96 140.812 2956.06 137.949C2945.99 135.877 2936.93 139.218 2931.52 142.306C2929.08 143.701 2927.64 145.395 2926.6 147.206C2925.55 149.017 2925.04 151.06 2925.8 153.39C2927.54 158.744 2938.88 163.971 2954.33 168.615C2975.68 175.033 2987.92 160.41 3001.34 158.073C3010.58 157.81 3018.4 157.299 3023.8 156.525C3026.65 156.262 3029.72 156.262 3032.88 156.262" stroke="#92FFFC" stroke-width="49" stroke-linecap="round"/>
<path d="M3808.43 88.1493C3801.77 88.1493 3776.07 82.0192 3762.02 75.5253C3754.59 72.0894 3747.56 70.6104 3744.21 69.0701C3742.69 68.375 3742.39 66.5082 3744.42 63.9308C3750.03 56.8304 3768.05 49.4956 3796.59 40.7416C3812.65 35.8149 3832.79 33.0093 3867.58 31.6781C3902.36 30.3468 3951.4 31.3685 3977.17 33.1719C4002.95 34.9753 4003.97 37.5295 4003.22 39.867C3998.63 54.1409 3970.04 59.7279 3943.73 66.1986C3927.6 70.1658 3915.78 70.5949 3905.01 73.42C3883.32 79.1135 3866.75 80.4093 3861.36 80.9201C3853.3 81.6833 3834.88 83.5053 3813.47 81.9728C3805.72 81.4181 3804.83 77.3752 3805.59 74.5191C3809.57 59.3558 3841.83 54.6505 3870.26 52.5374C3874.59 52.2159 3873.97 56.1056 3869.36 60.231C3848 79.3661 3831.24 77.3133 3820.83 80.1384C3819.15 80.5944 3817.74 81.431 3816.7 82.4604C3815.65 83.4898 3815.14 85.0224 3815.9 86.5781C3816.66 88.1338 3818.7 89.6664 3821.8 90.4559C3843.55 96.0022 3873.88 75.2699 3892.47 67.5376C3896.63 65.9664 3899.7 65.4556 3903.83 64.4261C3907.96 63.3967 3913.07 61.8642 3919.88 60.2852" stroke="#92FFFC" stroke-width="49" stroke-linecap="round"/>
<path d="M477.117 38.6131C466.869 38.6131 447.24 37.5914 437.921 37.3205C431.143 37.1235 456.931 39.6348 482.426 40.672C495.647 41.2098 519.764 43.2571 552.729 44.0234C579.655 44.6493 598.821 47.9012 611.445 48.1566C632.386 48.5803 653.032 50.4708 666.19 51.7634C668.19 51.9599 667.026 54.0622 664.456 55.618C658.179 59.4183 651.546 61.3069 639.255 62.8549C610.836 66.434 588.093 62.8704 579.099 62.0964C557.185 60.2105 529.47 60.2852 502.473 56.4307C486.998 54.2212 474.609 50.5018 463.223 46.8795C458.076 46.3531 452.379 45.3315 446.714 43.7835C444.113 43.2571 442.07 43.2571 439.964 43.2571" stroke="#92FFFC" stroke-width="49" stroke-linecap="round"/>
<path d="M72.5196 31.6118C54.6092 30.0638 13.2929 32.1072 4.15967 33.6784C-3.98176 35.079 20.3518 17.7107 31.7142 13.0512C36.4143 11.1238 54.8104 10.4506 81.3665 11.48C95.1795 12.0154 119.78 17.1225 152.791 23.3145C172.996 27.1043 184.44 29.5375 191.693 32.3703C193.572 33.1045 194.781 35.6985 195.571 37.5175C196.36 39.3364 196.36 40.8689 193.295 42.9355C171.692 57.5012 141.746 53.2839 127.009 54.5687C115.919 55.5357 107.659 53.2839 73.4252 47.8891C64.728 46.5185 53.5256 44.0113 30.3906 41.6893C16.9617 40.8998 0.10389 40.8998 -7.55874 40.6444C-15.2214 40.389 -13.178 39.8782 -11.0727 39.3518" stroke="#92FFFC" stroke-width="49" stroke-linecap="round"/>
<path d="M3151.61 11C3144.32 12.4573 3137.04 13.9146 3113.61 20.0089C3090.18 26.1031 3050.83 36.7901 3026.19 42.7813C3001.55 48.7725 2992.81 49.7441 2974.46 53.1592C2956.11 56.5744 2928.42 62.4036 2865.58 68.0784C2802.74 73.7531 2705.58 79.0966 2654.32 81.6064C2600.65 84.2339 2595.21 81.6726 2590.06 78.7359C2582.62 74.4876 2577.54 67.4675 2565.56 58.3997C2551.16 47.4982 2540.24 38.0119 2537.3 32.8745C2535.86 30.3691 2536.3 27.2513 2620.09 25.0212C2703.89 22.791 2871.48 21.3337 2959.52 20.3401C3047.55 19.3465 3050.95 18.8607 3054.4 18.6104C3057.86 18.3602 3061.26 18.3602 3008.36 26.6183C2955.46 34.8765 2846.16 51.3928 2782.57 59.9012C2718.98 68.4096 2704.4 68.4096 2693.25 67.9238C2674.78 67.1188 2663.42 65.4655 2651.22 64.7368C2630.2 63.4815 2611.43 59.592 2600.9 57.1411C2583.26 53.0364 2570.17 45.8432 2569.17 44.3785C2568.57 43.4821 2572.07 41.9423 2620.92 40.4629C2669.78 38.9835 2764.99 37.5262 2812.58 36.7754C2860.17 36.0247 2857.26 36.0247 2833.41 39.1822C2809.57 42.3397 2764.87 48.6548 2741.12 51.908C2711.48 55.9688 2700.72 59.0768 2686.73 56.4051C2686.42 53.7186 2707.35 48.8167 2738 43.1788C2749.23 40.9413 2751.66 39.9697 2754.16 38.9688" stroke="#22EDEE" stroke-width="29" stroke-linecap="round"/>
</g>
<defs>
<linearGradient id="paint0_linear_138_300" x1="2070" y1="0" x2="2070" y2="2630" gradientUnits="userSpaceOnUse">
<stop stop-color="#1EB4C3"/>
<stop offset="0.635568" stop-color="#0A3C71"/>
</linearGradient>
<linearGradient id="paint1_linear_138_300" x1="2258.25" y1="47" x2="2320" y2="1367.5" gradientUnits="userSpaceOnUse">
<stop offset="0.149038" stop-color="#00FFFC" stop-opacity="0.48"/>
<stop offset="1" stop-color="white" stop-opacity="0"/>
</linearGradient>
<linearGradient id="paint2_linear_138_300" x1="2258.25" y1="47" x2="2320" y2="1367.5" gradientUnits="userSpaceOnUse">
<stop offset="0.149038" stop-color="#00FFFC" stop-opacity="0.48"/>
<stop offset="1" stop-color="white" stop-opacity="0"/>
</linearGradient>
<linearGradient id="paint3_linear_138_300" x1="2258.25" y1="47" x2="2320" y2="1367.5" gradientUnits="userSpaceOnUse">
<stop offset="0.149038" stop-color="#00FFFC" stop-opacity="0.48"/>
<stop offset="1" stop-color="white" stop-opacity="0"/>
</linearGradient>
<linearGradient id="paint4_linear_138_300" x1="2258.25" y1="47" x2="2320" y2="1367.5" gradientUnits="userSpaceOnUse">
<stop offset="0.149038" stop-color="#00FFFC" stop-opacity="0.48"/>
<stop offset="1" stop-color="white" stop-opacity="0"/>
</linearGradient>
<clipPath id="clip0_138_300">
<rect width="4140" height="2630" fill="white"/>
</clipPath>
</defs>
</svg>
